<?xml version="1.0" encoding="UTF-8"?><svg xmlns="http://www.w3.org/2000/svg" viewBox="0 0 819.5 240.5"><defs><style>.c{fill:#fff;}</style></defs><g id="a"/><g id="b"><g><path class="c" d="M516.06,21.4l39.36-.13V102.5c13.06-18.8,40.37-24.76,62.46-15.63,22.35,8.84,29.4,24.63,30.42,26.77,2.31,4.85,3.73,10.03,4.58,15.31,5.73,35.75-6.03,72.39,4.53,107.61h-38.21c-9.97-24.8-4.23-52.88-4.17-79.61,.01-7.5-.5-15.24-3.78-21.98-4.62-9.5-14.84-16.01-25.41-16.17-10.57-.16-20.99,6.02-25.9,15.38-4.27,8.13-4.5,17.8-4.5,26.98v75.41h-39.36V21.4Z"/><path class="c" d="M360.43,157.46c.63-43.33-26.48-75.42-67.67-75.01-27.62,.21-52.15,13.9-64.95,38.31-14.01,26.38-13.13,63.12,4.25,87.74,25.44,34.54,76.57,41.72,125.61,18.59l-12.46-31.46c-40.81,17.73-85.52,12.77-88.1-23.82h103.3l.02-14.35Zm-102.51-14.89c2.67-8.46,6.85-14.26,12.98-18.88,11.75-9.37,32.88-10.32,44.33-.55,5.48,4.48,9.38,10.96,11.71,19.43h-69.02Z"/><path class="c" d="M130.9,138.9s.08-23.12-18.71-23.14h-43.02v120.8H29.81V115.76H0v-32.74H29.81v-26.32C29.81,34.39,50.78,0,97.12,0s63.88,39.55,63.88,39.55l-30.54,21.52s-8.47-24.8-33.34-24.8c-11.21,0-27.95,8.61-27.95,26.73v20.02l61.23,.02c26.7,0,34.3,20.54,34.3,20.54,10.09-23.7,46.03-21.14,53.19-19.67v31.2c-24.73-1.7-47.89,12.29-47.62,40.86v80.59h-39.36v-97.66Z"/><path class="c" d="M490.22,162.76c-12.29-12.33-43.56-15.99-62.72-19.93-9.65-2.03-17.65-4.31-17.8-13.87,.33-11.64,11.87-15.31,23.63-15.31,11.87-.07,24.42,4.97,30.92,14.73l29.75-16.16c-16.7-29.61-62.55-36.28-91.6-23.85-9.14,3.95-16.24,9.53-21.3,16.76-11.09,14.84-10.06,41.34,3.36,53.3,7.29,6.93,18.62,11.94,33.99,15.02l28.01,5.49c10.51,2.4,18.88,4.33,18.96,14.73-.19,12.76-14.4,16.1-26.55,16.18-31.96,0-38.14-29.81-38.27-30.31l-36.1,11.07c2.25,9.79,14.88,49.86,73.79,49.86,33.48-.07,62.52-12.85,62.73-47.67,0-13.48-3.6-23.5-10.8-30.05Z"/><path class="c" d="M814.12,208.83c-6.95,0-12.53-4.33-13.13-14.5-.31-4.74-1.49-22.28-1.4-26.37,.4-25.99,1.04-50.8-17.48-68.65-19.69-20.31-65.78-21.69-90.56-6.12-9.2,5.41-17.04,12.52-23.53,21.31l23.06,23.93c9.38-14.57,21.85-21.87,37.43-21.87,13.75-.66,26.43,5.83,30.86,20.43-31.19,7.97-71.54,11.35-88.65,42.62-7.78,15.28-6.16,34.54,5.59,47.35,9.46,10.31,24.51,13.5,38,13.5,22.53,.24,43.53-5.24,56.56-25,7.17,16.79,22.36,25.04,40.48,25.04,2.95-.08,5.68-.7,8.15-1.63v-30.05c-1.23,0-3,.02-5.38,.03Zm-53.77-31.63c.61,21.58-17.03,34.53-36.96,34.47-10.74-.01-18.26-4.8-18.2-15.95,.18-11.54,9.77-15.78,21.04-19.08l34.12-9.68v10.25Z"/></g></g></svg>