<svg id="facebook_white" xmlns="http://www.w3.org/2000/svg" width="16.896" height="31.251" viewBox="0 0 16.896 31.251">
  <path id="Path_176" data-name="Path 176" d="M38.337.007,34.284,0c-4.553,0-7.5,3.019-7.5,7.691v3.546H22.714a.637.637,0,0,0-.637.638v5.138a.637.637,0,0,0,.637.637h4.075V30.614a.637.637,0,0,0,.637.637h5.316a.637.637,0,0,0,.637-.637V17.65h4.764a.637.637,0,0,0,.637-.637l0-5.138a.638.638,0,0,0-.638-.638H33.38V8.231c0-1.445.344-2.178,2.226-2.178h2.73a.637.637,0,0,0,.637-.637V.644A.637.637,0,0,0,38.337.007Z" transform="translate(-22.077 0)" fill="#fff"/>
</svg>
