<?xml version="1.0" encoding="utf-8"?>
<!-- Generator: Adobe Illustrator 26.2.1, SVG Export Plug-In . SVG Version: 6.00 Build 0)  -->
<svg version="1.1" id="Layer_1" xmlns="http://www.w3.org/2000/svg" xmlns:xlink="http://www.w3.org/1999/xlink" x="0px" y="0px"
	 viewBox="0 0 1187.7 350" style="enable-background:new 0 0 1187.7 350;" xml:space="preserve">
<style type="text/css">
	.st0{fill:#F3F1EF;}
	.st1{fill:url(#SVGID_1_);}
</style>
<g id="a">
</g>
<g id="b_00000125580991312359407520000010087057441208649905_">
	<g>
		<g>
			<path class="st0" d="M884.2,104l39.4-0.1v81.2c13.1-18.8,40.4-24.8,62.5-15.6c22.3,8.8,29.4,24.6,30.4,26.8
				c2.3,4.9,3.7,10,4.6,15.3c5.7,35.8-6,72.4,4.5,107.6h-38.2c-10-24.8-4.2-52.9-4.2-79.6c0-7.5-0.5-15.2-3.8-22
				c-4.6-9.5-14.8-16-25.4-16.2c-10.6-0.2-21,6-25.9,15.4c-4.3,8.1-4.5,17.8-4.5,27v75.4h-39.4L884.2,104L884.2,104z"/>
			<path class="st0" d="M728.6,240c0.6-43.3-26.5-75.4-67.7-75c-27.6,0.2-52.2,13.9-65,38.3c-14,26.4-13.1,63.1,4.2,87.7
				c25.4,34.5,76.6,41.7,125.6,18.6l-12.5-31.5c-40.8,17.7-85.5,12.8-88.1-23.8h103.3L728.6,240L728.6,240z M626.1,225.1
				c2.7-8.5,6.8-14.3,13-18.9c11.8-9.4,32.9-10.3,44.3-0.6c5.5,4.5,9.4,11,11.7,19.4L626.1,225.1L626.1,225.1z"/>
			<path class="st0" d="M499.1,221.5c0,0,0.1-23.1-18.7-23.1h-43v120.8H398V198.3h-29.8v-32.7H398v-26.3c0-22.3,21-56.7,67.3-56.7
				s63.9,39.6,63.9,39.6l-30.5,21.5c0,0-8.5-24.8-33.3-24.8c-11.2,0-28,8.6-28,26.7v20l61.2,0c26.7,0,34.3,20.5,34.3,20.5
				c10.1-23.7,46-21.1,53.2-19.7v31.2c-24.7-1.7-47.9,12.3-47.6,40.9v80.6h-39.4L499.1,221.5L499.1,221.5z"/>
			<path class="st0" d="M858.4,245.3c-12.3-12.3-43.6-16-62.7-19.9c-9.7-2-17.7-4.3-17.8-13.9c0.3-11.6,11.9-15.3,23.6-15.3
				c11.9-0.1,24.4,5,30.9,14.7l29.8-16.2c-16.7-29.6-62.5-36.3-91.6-23.9c-9.1,3.9-16.2,9.5-21.3,16.8
				c-11.1,14.8-10.1,41.3,3.4,53.3c7.3,6.9,18.6,11.9,34,15l28,5.5c10.5,2.4,18.9,4.3,19,14.7c-0.2,12.8-14.4,16.1-26.5,16.2
				c-32,0-38.1-29.8-38.3-30.3l-36.1,11.1c2.2,9.8,14.9,49.9,73.8,49.9c33.5-0.1,62.5-12.9,62.7-47.7
				C869.2,261.9,865.6,251.9,858.4,245.3L858.4,245.3z"/>
			<path class="st0" d="M1182.3,291.4c-6.9,0-12.5-4.3-13.1-14.5c-0.3-4.7-1.5-22.3-1.4-26.4c0.4-26,1-50.8-17.5-68.6
				c-19.7-20.3-65.8-21.7-90.6-6.1c-9.2,5.4-17,12.5-23.5,21.3l23.1,23.9c9.4-14.6,21.8-21.9,37.4-21.9c13.8-0.7,26.4,5.8,30.9,20.4
				c-31.2,8-71.5,11.4-88.7,42.6c-7.8,15.3-6.2,34.5,5.6,47.4c9.5,10.3,24.5,13.5,38,13.5c22.5,0.2,43.5-5.2,56.6-25
				c7.2,16.8,22.4,25,40.5,25c2.9-0.1,5.7-0.7,8.2-1.6v-30C1186.4,291.4,1184.7,291.4,1182.3,291.4L1182.3,291.4z M1128.5,259.8
				c0.6,21.6-17,34.5-37,34.5c-10.7,0-18.3-4.8-18.2-16c0.2-11.5,9.8-15.8,21-19.1l34.1-9.7L1128.5,259.8L1128.5,259.8z"/>
		</g>
		
			<radialGradient id="SVGID_1_" cx="-7535.062" cy="8295.9717" r="158.3779" fx="-7535.062" fy="8452.0312" gradientTransform="matrix(-1 3.665183e-03 3.628531e-03 0.99 -7391.4453 -8010.335)" gradientUnits="userSpaceOnUse">
			<stop  offset="0.45" style="stop-color:#7B69FF"/>
			<stop  offset="0.49" style="stop-color:#7B69FF;stop-opacity:0.98"/>
			<stop  offset="0.55" style="stop-color:#7B69FF;stop-opacity:0.91"/>
			<stop  offset="0.61" style="stop-color:#7B69FF;stop-opacity:0.8"/>
			<stop  offset="0.68" style="stop-color:#7B69FF;stop-opacity:0.65"/>
			<stop  offset="0.75" style="stop-color:#7B69FF;stop-opacity:0.46"/>
			<stop  offset="0.82" style="stop-color:#7B69FF;stop-opacity:0.25"/>
			<stop  offset="0.82" style="stop-color:#7B69FF;stop-opacity:0.24"/>
			<stop  offset="0.87" style="stop-color:#7B69FF;stop-opacity:0.13"/>
			<stop  offset="0.91" style="stop-color:#7B69FF;stop-opacity:6.000000e-02"/>
			<stop  offset="0.95" style="stop-color:#7B69FF;stop-opacity:1.000000e-02"/>
			<stop  offset="1" style="stop-color:#7B69FF;stop-opacity:0"/>
		</radialGradient>
		<circle class="st1" cx="175" cy="175" r="175"/>
	</g>
</g>
</svg>
