<?xml version="1.0" encoding="utf-8"?>
<!-- Generator: Adobe Illustrator 26.2.1, SVG Export Plug-In . SVG Version: 6.00 Build 0)  -->
<svg version="1.1" id="Layer_1" xmlns="http://www.w3.org/2000/svg" xmlns:xlink="http://www.w3.org/1999/xlink" x="0px" y="0px"
	 viewBox="0 0 819.5 999.8" style="enable-background:new 0 0 819.5 999.8;" xml:space="preserve">
<style type="text/css">
	.st0{fill:#F3F1EF;}
	.st1{fill:url(#SVGID_1_);}
</style>
<g id="a">
</g>
<g id="b">
	<g>
		<g>
			<path class="st0" d="M485.5,843.6l28.1-0.1v57.9c9.3-13.4,28.8-17.7,44.5-11.1c15.9,6.3,21,17.6,21.7,19.1
				c1.6,3.5,2.7,7.2,3.3,10.9c4.1,25.5-4.3,51.6,3.2,76.7H559c-7.1-17.7-3-37.7-3-56.7c0-5.3-0.4-10.9-2.7-15.7
				c-3.3-6.8-10.6-11.4-18.1-11.5c-7.5-0.1-15,4.3-18.5,11c-3,5.8-3.2,12.7-3.2,19.2V997h-28.1L485.5,843.6L485.5,843.6z"/>
			<path class="st0" d="M374.6,940.6c0.5-30.9-18.9-53.8-48.2-53.5c-19.7,0.2-37.2,9.9-46.3,27.3c-10,18.8-9.4,45,3,62.5
				c18.1,24.6,54.6,29.7,89.5,13.2l-8.9-22.4c-29.1,12.6-61,9.1-62.8-17h73.6L374.6,940.6L374.6,940.6z M301.5,930
				c1.9-6,4.9-10.2,9.2-13.5c8.4-6.7,23.4-7.4,31.6-0.4c3.9,3.2,6.7,7.8,8.4,13.8L301.5,930L301.5,930z"/>
			<path class="st0" d="M211,927.4c0,0,0.1-16.5-13.3-16.5H167V997H139v-86.1h-21.2v-23.3H139v-18.8c0-15.9,14.9-40.4,48-40.4
				s45.5,28.2,45.5,28.2l-21.8,15.3c0,0-6-17.7-23.8-17.7c-8,0-19.9,6.1-19.9,19v14.3h43.6c19,0,24.4,14.7,24.4,14.7
				c7.2-16.9,32.8-15.1,37.9-14v22.2c-17.6-1.2-34.1,8.8-33.9,29.1V997H211L211,927.4L211,927.4z"/>
			<path class="st0" d="M467.1,944.4c-8.8-8.8-31-11.4-44.7-14.2c-6.9-1.5-12.6-3.1-12.7-9.9c0.2-8.3,8.5-10.9,16.8-10.9
				c8.5,0,17.4,3.5,22,10.5l21.2-11.5c-11.9-21.1-44.6-25.9-65.3-17c-6.5,2.8-11.6,6.8-15.2,11.9c-7.9,10.6-7.2,29.5,2.4,38
				c5.2,4.9,13.3,8.5,24.2,10.7l20,3.9c7.5,1.7,13.5,3.1,13.5,10.5c-0.1,9.1-10.3,11.5-18.9,11.5c-22.8,0-27.2-21.2-27.3-21.6
				l-25.7,7.9c1.6,7,10.6,35.5,52.6,35.5c23.9,0,44.6-9.2,44.7-34C474.8,956.2,472.2,949.1,467.1,944.4L467.1,944.4z"/>
			<path class="st0" d="M697.9,977.2c-5,0-8.9-3.1-9.4-10.3c-0.2-3.4-1.1-15.9-1-18.8c0.3-18.5,0.7-36.2-12.5-48.9
				c-14-14.5-46.9-15.5-64.5-4.4c-6.5,3.9-12.1,8.9-16.8,15.2l16.4,17c6.7-10.4,15.6-15.6,26.7-15.6c9.8-0.5,18.8,4.2,22,14.6
				c-22.2,5.7-51,8.1-63.2,30.4c-5.5,10.9-4.4,24.6,4,33.7c6.7,7.3,17.5,9.6,27.1,9.6c16.1,0.2,31-3.7,40.3-17.8
				c5.1,12,15.9,17.8,28.8,17.8c2.1-0.1,4-0.5,5.8-1.2v-21.4C700.9,977.2,699.6,977.2,697.9,977.2L697.9,977.2z M659.6,954.7
				c0.4,15.4-12.1,24.6-26.3,24.6c-7.7,0-13-3.4-13-11.4c0.1-8.2,7-11.2,15-13.6l24.3-6.9L659.6,954.7L659.6,954.7z"/>
		</g>
	</g>
</g>
<radialGradient id="SVGID_1_" cx="-7906.0352" cy="-7531.9395" r="370.7712" fx="-7906.0352" fy="-7166.5957" gradientTransform="matrix(1 -3.665183e-03 3.628531e-03 0.99 8346.1152 7837.3818)" gradientUnits="userSpaceOnUse">
	<stop  offset="0.45" style="stop-color:#7B69FF"/>
	<stop  offset="0.49" style="stop-color:#7B69FF;stop-opacity:0.98"/>
	<stop  offset="0.55" style="stop-color:#7B69FF;stop-opacity:0.91"/>
	<stop  offset="0.61" style="stop-color:#7B69FF;stop-opacity:0.8"/>
	<stop  offset="0.68" style="stop-color:#7B69FF;stop-opacity:0.65"/>
	<stop  offset="0.75" style="stop-color:#7B69FF;stop-opacity:0.46"/>
	<stop  offset="0.82" style="stop-color:#7B69FF;stop-opacity:0.25"/>
	<stop  offset="0.82" style="stop-color:#7B69FF;stop-opacity:0.24"/>
	<stop  offset="0.87" style="stop-color:#7B69FF;stop-opacity:0.13"/>
	<stop  offset="0.91" style="stop-color:#7B69FF;stop-opacity:6.000000e-02"/>
	<stop  offset="0.95" style="stop-color:#7B69FF;stop-opacity:1.000000e-02"/>
	<stop  offset="1" style="stop-color:#7B69FF;stop-opacity:0"/>
</radialGradient>
<circle class="st1" cx="409.8" cy="409.8" r="409.8"/>
</svg>
