<svg id="meetup_white" xmlns="http://www.w3.org/2000/svg" width="73.664" height="30.772" viewBox="0 0 73.664 30.772">
  <g id="Group_73" data-name="Group 73" transform="translate(0 0)">
    <path id="Path_177" data-name="Path 177" d="M15.159,37.212a2.28,2.28,0,0,0-1.108-1.4,7.608,7.608,0,0,0-2.589-.252,1.165,1.165,0,0,0-.9.524,40.506,40.506,0,0,0-1.65,4.439c-.456,1.6-.711,3.256-1.083,5.005-.167-.28-.3-.481-.412-.694-.825-1.58-1.64-3.161-2.467-4.738s-1.3-1.822-3.086-1.527a5.245,5.245,0,0,0-1.306.361.854.854,0,0,0-.446.6A58.4,58.4,0,0,0,.406,50.473C.791,53,1.259,53.324,3.673,52.4c.12-.047.23-.115.351-.165a1.014,1.014,0,0,0,.7-1.221c-.173-1.079-.295-2.166-.434-3.25l.152-.012C5.165,48.934,5.915,50.1,6.614,51.3c.573.977,1.243,1.615,2.5,1.242.486-.145,1.047-.047,1.532-.195a1.544,1.544,0,0,0,.876-.681,3.834,3.834,0,0,0,.28-1.42c.117-2.035.2-4.074.3-6.11.017-.375.092-.747.152-1.2,1.092,3.494,2.159,6.84,3.175,10.2.177.587.378.83,1,.645.866-.254,1.745-.456,2.46-.639-.785-3.463-1.536-6.832-2.313-10.2C16.137,41.034,15.707,39.1,15.159,37.212Z" transform="translate(0 -30.138)" fill="#fff"/>
    <path id="Path_178" data-name="Path 178" d="M93.176,41.875c-.162-1.459-.584-2.872-2.357-3.283-.653-.153-1.249-.6-1.9-.7a3.826,3.826,0,0,0-2.12.137,7.993,7.993,0,0,0-4.167,5.329c-.562,2.112-.854,4.3-1.286,6.446a1.042,1.042,0,0,1-.369.679c-1.034.539-1.1,1.144-.261,1.939a2.046,2.046,0,0,1,.542,1.117c.373,2.388.686,4.785,1.054,7.175.041.272.286.726.453.734.988.042,1.978-.023,2.986-.053-.97-3.972-1.209-6.514-.8-8.277a7.269,7.269,0,0,0,1.809-.687c1.321-.971,2.573-2.041,3.826-3.1C92.916,47.365,93.492,44.738,93.176,41.875Zm-8.121,7.852c.7-3.4,1.126-6.815,3.967-9.278C90.387,43.956,88.653,47.866,85.055,49.727Z" transform="translate(-19.592 -30.689)" fill="#fff"/>
    <path id="Path_179" data-name="Path 179" d="M32.589,52.172a2.3,2.3,0,0,1-3.266-.849,5.8,5.8,0,0,1-.567-4.119c1.585.081,3.059.156,4.535.236.564.031.725-.244.854-.783.511-2.135.092-4.251-.026-6.372-.066-1.212-.348-2.219-1.872-2.483-1.375-.237-2.6-.669-3.868.468a8.52,8.52,0,0,0-2.946,3.965,24.974,24.974,0,0,0-.576,6.518,4.541,4.541,0,0,0,2.29,4.263c2.285,1.46,6.688,1.565,8.977-.069A3.01,3.01,0,0,0,32.589,52.172ZM29.2,43.663a24.063,24.063,0,0,1,.885-2.324l.326.082c.027,1.189.054,2.379.08,3.647C28.885,45,28.844,44.986,29.2,43.663Z" transform="translate(-6.077 -30.619)" fill="#fff"/>
    <path id="Path_180" data-name="Path 180" d="M48.823,50.894a1.4,1.4,0,0,0-.879.085,17.988,17.988,0,0,1-1.688.95,2.345,2.345,0,0,1-2.761-.575c-.932-1.072-1.69-2.205-1.162-3.817,1.651.225,3.286.806,4.778-.134.149-1.731.283-3.368.436-5,.134-1.375.335-2.744.406-4.121a1.3,1.3,0,0,0-.6-.986,13.3,13.3,0,0,0-2.521-.959c-.4-.109-1.067-.113-1.279.128A19.2,19.2,0,0,0,40.3,40.621a15.343,15.343,0,0,0-1.556,7.069,5.516,5.516,0,0,0,4.083,5.422c.685.173,1.417.164,2.11.315,1.853.4,3.4-.349,4.946-1.14A1.3,1.3,0,0,0,48.823,50.894Zm-4.685-9.919c.105.023.209.048.314.073-.016,1.17.027,2.344-.064,3.507-.107,1.39-.206,1.417-1.845.922C43.076,43.968,43.609,42.471,44.138,40.975Z" transform="translate(-9.471 -30.312)" fill="#fff"/>
    <path id="Path_181" data-name="Path 181" d="M59.363,42c-.017.207-.246.4-.378.593a2.1,2.1,0,0,1-.261-.737c.029-.628.218-1.251.21-1.874-.036-2.843-.208-5.687-.145-8.526.04-1.848.127-1.939-1.6-2.714-1.68-.755-2.473-.321-2.519,1.528a51.765,51.765,0,0,0,.157,5.236c.187,2.409.487,4.81.752,7.358-.709-.031-1.345-.054-1.976-.091-.755-.045-1.278.221-1.338,1.039s.443,1.046,1.163,1.059c.768.015,1.532.08,2.363.127.107,1.32.216,2.539.3,3.758s.138,2.421.208,3.7l2.585-.429c-.05-1.2-.11-2.292-.137-3.391s.029-2.194-.048-3.286c-.047-.621.289-.594.691-.645,1.139-.144,2.273-.31,3.407-.468.052-.115.107-.23.156-.344-.911-.814-1.788-1.674-2.755-2.415C59.809,41.171,59.415,41.4,59.363,42Z" transform="translate(-12.777 -28.385)" fill="#fff"/>
    <path id="Path_182" data-name="Path 182" d="M76.482,44.512a10.374,10.374,0,0,0-1.331-.577c-.307-.085-.8-.122-.968.052a2,2,0,0,0-.48,1.174c-.035.566.165,1.142.168,1.715A7.821,7.821,0,0,1,71.2,53.325a3.982,3.982,0,0,1-.225-.745c-.122-1.937-.3-3.874-.319-5.814-.017-1.9.02-1.954-1.764-2.739-.267-.117-.527-.261-.8-.35-.918-.3-1.369,0-1.4.963a10.263,10.263,0,0,0,.062,2.034c.388,2.317.774,4.637,1.281,6.93a1.92,1.92,0,0,0,1.842,1.616,10.394,10.394,0,0,0,2.6-.232,2.858,2.858,0,0,0,1.268-.889c.515-.549.905-1.209,1.4-1.78A8.825,8.825,0,0,0,77.7,46.81,2.033,2.033,0,0,0,76.482,44.512Z" transform="translate(-16.298 -32.097)" fill="#fff"/>
  </g>
</svg>
