<svg xmlns="http://www.w3.org/2000/svg" width="173.817" height="558.56" viewBox="0 0 173.817 558.56">
  <path id="Intersection_23" data-name="Intersection 23" d="M-2274.817-3023.758a133.293,133.293,0,0,1,60.035-111.5q.468-.309.93-.629v-27.824a5.224,5.224,0,0,1,5.223-5.222,5.221,5.221,0,0,1,5.222,5.222v17.906a50.908,50.908,0,0,0,10.515-31.3v-121.12a5.221,5.221,0,0,1,5.222-5.222,5.22,5.22,0,0,1,5.223,5.222v12.039h6.319v-48.626a5.22,5.22,0,0,1,5.223-5.223h4.644v-37.135a5.225,5.225,0,0,1,5.223-5.222h14.356l5.367-65.412h.033l5.366,65.412h14.354a5.225,5.225,0,0,1,5.223,5.222v37.135h4.647a5.222,5.222,0,0,1,5.223,5.223v48.626h4.47v29.813h-9.1v147.381h9.1v42.2l-115,0a85.7,85.7,0,0,0-12.837,45.33,88.634,88.634,0,0,0,88.536,88.532,88.011,88.011,0,0,0,39.3-9.209v11.515a98.414,98.414,0,0,1-39.3,8.139,99.091,99.091,0,0,1-98.98-98.977,96.244,96.244,0,0,1,16.029-53.408,5.231,5.231,0,0,1,4.373-2.367h28.946v-26.528a5.22,5.22,0,0,1,5.222-5.223h13.638v-147.381h-10.375v79.268c0,20.668-9.936,39.571-26.574,50.562a122.854,122.854,0,0,0-55.35,102.779A123.216,123.216,0,0,0-2141.3-2900.682a122.591,122.591,0,0,0,39.3-6.433v10.976a133.03,133.03,0,0,1-39.3,5.9C-2214.923-2890.238-2274.817-2950.138-2274.817-3023.758Zm94.329-53.476,78.376,0v-21.309h-78.376Zm18.859-31.752h40.08v-147.381h-40.08Zm-18.905-157.826h78.377v-8.924h-78.377Zm14.849-19.368h48.77v-23.281h-48.77Zm0-33.726h48.77v-9.678h-48.77Zm9.867-20.123h29.033v-31.912h-29.033Zm16.26,386.7a5.219,5.219,0,0,1,5.222-5.222A54.931,54.931,0,0,0-2102-2969.033v12.4a65.271,65.271,0,0,1-32.337,8.526A5.222,5.222,0,0,1-2139.558-2953.33Zm10.73-134.471a4.935,4.935,0,0,1,4.937-4.935,4.933,4.933,0,0,1,4.934,4.935,4.931,4.931,0,0,1-4.934,4.932A4.933,4.933,0,0,1-2128.829-3087.8Zm-17.408,0a4.935,4.935,0,0,1,4.937-4.935,4.933,4.933,0,0,1,4.934,4.935,4.931,4.931,0,0,1-4.934,4.932A4.933,4.933,0,0,1-2146.236-3087.8Zm-17.408,0a4.936,4.936,0,0,1,4.936-4.935,4.933,4.933,0,0,1,4.934,4.935,4.93,4.93,0,0,1-4.934,4.932A4.933,4.933,0,0,1-2163.644-3087.8Zm24.086-31.223v-6.388a5.223,5.223,0,0,1,5.222-5.224,5.226,5.226,0,0,1,5.223,5.224v6.388a5.225,5.225,0,0,1-5.223,5.223A5.222,5.222,0,0,1-2139.558-3119.024Zm-13.927,0v-6.388a5.223,5.223,0,0,1,5.222-5.224,5.225,5.225,0,0,1,5.223,5.224v6.388a5.224,5.224,0,0,1-5.223,5.223A5.222,5.222,0,0,1-2153.485-3119.024Zm13.927-24.371v-6.388a5.223,5.223,0,0,1,5.222-5.224,5.226,5.226,0,0,1,5.223,5.224v6.388a5.225,5.225,0,0,1-5.223,5.223A5.222,5.222,0,0,1-2139.558-3143.4Zm-13.927,0v-6.388a5.223,5.223,0,0,1,5.222-5.224,5.225,5.225,0,0,1,5.223,5.224v6.388a5.224,5.224,0,0,1-5.223,5.223A5.222,5.222,0,0,1-2153.485-3143.4Zm13.927-24.37v-6.39a5.221,5.221,0,0,1,5.222-5.221,5.224,5.224,0,0,1,5.223,5.221v6.39a5.224,5.224,0,0,1-5.223,5.222A5.221,5.221,0,0,1-2139.558-3167.765Zm-13.927,0v-6.39a5.222,5.222,0,0,1,5.222-5.221,5.224,5.224,0,0,1,5.223,5.221v6.39a5.224,5.224,0,0,1-5.223,5.222A5.222,5.222,0,0,1-2153.485-3167.765Zm13.927-24.371v-6.388a5.222,5.222,0,0,1,5.222-5.223,5.225,5.225,0,0,1,5.223,5.223v6.388a5.224,5.224,0,0,1-5.223,5.222A5.221,5.221,0,0,1-2139.558-3192.136Zm-13.927,0v-6.388a5.222,5.222,0,0,1,5.222-5.223,5.224,5.224,0,0,1,5.223,5.223v6.388a5.224,5.224,0,0,1-5.223,5.222A5.222,5.222,0,0,1-2153.485-3192.136Zm13.927-24.371v-6.388a5.222,5.222,0,0,1,5.222-5.223,5.225,5.225,0,0,1,5.223,5.223v6.388a5.224,5.224,0,0,1-5.223,5.222A5.221,5.221,0,0,1-2139.558-3216.507Zm-13.927,0v-6.388a5.222,5.222,0,0,1,5.222-5.223,5.224,5.224,0,0,1,5.223,5.223v6.388a5.224,5.224,0,0,1-5.223,5.222A5.222,5.222,0,0,1-2153.485-3216.507Zm13.927-24.37v-6.389a5.221,5.221,0,0,1,5.222-5.222,5.224,5.224,0,0,1,5.223,5.222v6.389a5.223,5.223,0,0,1-5.223,5.221A5.22,5.22,0,0,1-2139.558-3240.878Zm-13.927,0v-6.389a5.222,5.222,0,0,1,5.222-5.222,5.224,5.224,0,0,1,5.223,5.222v6.389a5.223,5.223,0,0,1-5.223,5.221A5.221,5.221,0,0,1-2153.485-3240.878Zm13.927-55.7v-2.907a5.221,5.221,0,0,1,5.222-5.223,5.224,5.224,0,0,1,5.223,5.223v2.907a5.223,5.223,0,0,1-5.223,5.221A5.22,5.22,0,0,1-2139.558-3296.582Zm-13.927,0v-2.907a5.222,5.222,0,0,1,5.222-5.223,5.224,5.224,0,0,1,5.223,5.223v2.907a5.223,5.223,0,0,1-5.223,5.221A5.221,5.221,0,0,1-2153.485-3296.582Zm2.029-58.216a10.168,10.168,0,0,1,10.156-10.159,10.17,10.17,0,0,1,10.156,10.159,10.169,10.169,0,0,1-10.156,10.156A10.167,10.167,0,0,1-2151.456-3354.8Zm9.867,0c0,.314.579.314.579,0a.289.289,0,0,0-.29-.289A.288.288,0,0,0-2141.589-3354.8Z" transform="translate(2275.317 3448.297)" fill="#fff" stroke="rgba(0,0,0,0)" stroke-width="1"/>
</svg>
