<svg xmlns="http://www.w3.org/2000/svg" width="26.144" height="18.901" viewBox="0 0 26.144 18.901">
  <g id="youtube" transform="translate(0 -80)">
    <g id="Group_74" data-name="Group 74" transform="translate(0 80)">
      <path id="Path_183" data-name="Path 183" d="M25.033,81.821c-.709-1.327-1.479-1.571-3.046-1.663-1.565-.112-5.5-.158-8.912-.158s-7.355.046-8.918.156c-1.564.095-2.335.337-3.051,1.665S0,85.428,0,89.445v.014c0,4,.376,6.3,1.106,7.61.716,1.327,1.485,1.567,3.049,1.679,1.565.1,5.5.153,8.92.153s7.346-.057,8.913-.151c1.567-.112,2.337-.352,3.046-1.679.737-1.311,1.109-3.61,1.109-7.61v-.014C26.144,85.428,25.771,83.146,25.033,81.821ZM9.8,94.606V84.3l8.17,5.155Z" transform="translate(0 -80)" fill="#132233"/>
    </g>
  </g>
</svg>
