<svg xmlns="http://www.w3.org/2000/svg" width="12.25" height="22.657" viewBox="0 0 12.25 22.657">
  <g id="facebook-logo" transform="translate(-76.077 -72)">
    <path id="Path_176" data-name="Path 176" d="M33.865,0,30.927,0c-3.3,0-5.434,2.189-5.434,5.576V8.147H22.539a.462.462,0,0,0-.462.462v3.725a.462.462,0,0,0,.462.462h2.954v9.4a.462.462,0,0,0,.462.462H29.81a.462.462,0,0,0,.462-.462V12.8h3.454a.462.462,0,0,0,.462-.462V8.609a.462.462,0,0,0-.462-.462H30.272V5.968c0-1.048.25-1.579,1.614-1.579h1.979a.462.462,0,0,0,.462-.462V.467A.462.462,0,0,0,33.865,0Z" transform="translate(54 72)" fill="#132233"/>
  </g>
</svg>
