<?xml version="1.0" encoding="UTF-8"?>
<svg width="255px" height="35px" viewBox="0 0 255 35" version="1.1" xmlns="http://www.w3.org/2000/svg" xmlns:xlink="http://www.w3.org/1999/xlink">
    <!-- Generator: Sketch 55.2 (78181) - https://sketchapp.com -->
    <title>fresha logo</title>
    <desc>Created with Sketch.</desc>
    <g id="fresha-logo" stroke="none" stroke-width="1" fill="none" fill-rule="evenodd">
        <g id="logo" fill="#101928">
            <path d="M184.356311,0.494840119 L189.90341,0.494840119 L189.90341,14.9337994 L199.473183,14.9337994 L199.473183,0.503483615 L205.050512,0.503483615 L205.050512,33.9473287 L199.496934,33.9473287 L199.496934,19.9016485 L189.927162,19.9016485 L189.927162,33.9473287 L184.356311,33.9473287 L184.356311,0.494840119 Z M238.246739,0.497000993 L246.698023,0.497000993 C246.698023,0.497000993 254.065366,33.6102324 254.134462,33.9451678 L248.470763,33.9451678 C248.066984,31.9485204 247.04998,26.831571 247.04998,26.831571 L237.981152,26.831571 C237.981152,26.831571 236.579802,33.7247587 236.527981,33.943007 L230.853485,33.943007 C233.321502,22.7756107 235.789519,11.668719 238.246739,0.497000993 Z M246.086957,22.0020179 L242.496133,6.38538232 C242.496133,6.38538232 239.298291,20.2754796 238.95929,22.0020179 L246.086957,22.0020179 Z M156.245104,8.85958292 L151.386804,9.5726713 C151.250771,9.09079643 151.14065,8.62404767 150.989503,8.17026415 C149.871014,4.82523138 146.671013,4.71286594 144.742808,5.66581132 C142.479919,6.77001787 141.978975,10.0675114 143.738759,12.0403893 C144.576546,12.9803694 145.660487,13.5421966 146.796249,14.0197498 C148.907991,14.9078689 151.045643,15.7354836 152.984645,16.9931122 C156.154416,19.0502642 157.437007,21.9933744 157.02891,25.6798252 C156.597061,29.6407071 154.437816,32.3245124 150.674253,33.6145541 C147.983882,34.5485213 145.056754,34.5431897 142.369798,33.599428 C139.130931,32.4952214 137.211362,30.1874081 136.576544,26.8250884 C136.434034,26.163861 136.341187,25.1396068 136.341187,25.1396068 L141.272902,24.3357617 C141.272902,24.3357617 141.400297,25.0034717 141.471552,25.3189593 C142.296384,29.0291797 146.906371,30.6325482 149.892606,28.2447825 C152.010825,26.5484965 151.995711,22.8425978 149.763052,21.1138987 C148.758679,20.3820636 147.671544,19.771358 146.524185,19.2944429 C144.453469,18.367428 142.376276,17.4663436 140.538758,16.0790626 C135.898542,12.5741251 136.524722,6.33136048 138.886936,3.51358093 C140.050979,2.11154389 141.632086,1.11825337 143.399758,0.678514399 C145.96494,-1.0463852e-14 148.534441,-1.0463852e-14 150.993821,1.08043694 C154.319058,2.55199206 155.789504,5.32223237 156.245104,8.85958292 Z M0,0.503483615 L16.9047266,0.503483615 C16.9047266,1.51693347 16.9047266,5.47349355 16.9047266,5.47349355 L5.57948825,5.47349355 L5.57948825,14.8732949 C5.79541272,14.8884211 15.2291527,14.8732949 15.2291527,14.8732949 L15.2291527,19.9081311 L5.57948825,19.9081311 L5.57948825,33.9538113 L0,33.9538113 L0,0.503483615 Z M59.1633042,20.5283019 L64.9673539,33.9905462 C63.1104034,33.9905462 59.3317253,33.9710983 59.3317253,33.9710983 L53.9811169,21.3926514 L49.8094562,21.3926514 C49.8094562,21.3926514 49.8094562,33.6664151 49.8094562,33.943007 L44.1781461,33.943007 L44.1781461,0.492679245 C44.1781461,0.492679245 50.9992,0.479714002 54.1106716,0.479714002 C55.7866702,0.446536332 57.4536922,0.732527164 59.0229533,1.32245482 C61.6529133,2.37696127 63.3716721,4.2612433 64.1727518,6.9666574 C64.9355518,9.53915076 64.943796,12.2767993 64.1965035,14.8538471 C63.4494049,17.5030785 61.7954234,19.3938431 59.1633042,20.5283019 Z M58.826462,13.3066614 L58.8221435,13.3153049 C59.1946313,11.8783241 59.2278971,10.3743158 58.9193095,8.92224826 C58.4982568,6.88886594 57.4510231,5.808429 55.4018999,5.59234161 C53.6485933,5.40650645 49.7619528,5.46701092 49.7619528,5.46701092 L49.7619528,16.3665336 C49.7619528,16.3665336 53.760874,16.3751023 55.5724803,16.2065541 C57.2826021,16.0444886 58.3946131,14.9943039 58.826462,13.3066614 Z M92.2148625,28.9967666 L109.110952,28.9967666 L109.110952,33.9451678 L92.2148625,33.9451678 L92.2148625,28.9967666 Z M92.2148625,14.7241946 L109.110952,14.7241946 L109.110952,19.6725958 L92.2148625,19.6725958 L92.2148625,14.7241946 Z M92.2148625,0.525092354 L109.110952,0.525092354 L109.110952,5.47349355 L92.2148625,5.47349355 L92.2148625,0.525092354 Z" id="Combined-Shape"></path>
        </g>
    </g>
</svg>