<svg xmlns="http://www.w3.org/2000/svg" xmlns:xlink="http://www.w3.org/1999/xlink" width="442.231" height="619.571" viewBox="0 0 442.231 619.571">
  <defs>
    <clipPath id="clip-path">
      <path id="Path_100" data-name="Path 100" d="M462.576,413.647A104.149,104.149,0,1,1,270.709,469.8a101.424,101.424,0,0,1,16.858-56.158Z" transform="translate(-270.709 -413.639)" fill="none"/>
    </clipPath>
  </defs>
  <g id="Logo_About_us" transform="translate(-236.402 -305.646)">
    <g id="Group_9" data-name="Group 9" transform="translate(369.081 723.294)">
      <g id="Group_8" data-name="Group 8">
        <g id="Group_7" data-name="Group 7" clip-path="url(#clip-path)">
          <path id="Path_19" data-name="Path 19" d="M287.712,413.639l-17,17v-17Z" transform="translate(-270.71 -413.638)" fill="#4c4092"/>
          <path id="Path_20" data-name="Path 20" d="M291.39,413.639l-20.682,20.681v-3.678l17-17Z" transform="translate(-270.71 -413.638)" fill="#4c4092"/>
          <path id="Path_21" data-name="Path 21" d="M295.068,413.639,270.709,438v-3.678l20.682-20.681Z" transform="translate(-270.71 -413.638)" fill="#4d4092"/>
          <path id="Path_22" data-name="Path 22" d="M298.747,413.639l-28.038,28.038V438l24.359-24.36Z" transform="translate(-270.71 -413.638)" fill="#4e4092"/>
          <path id="Path_23" data-name="Path 23" d="M302.425,413.639l-31.716,31.716v-3.678l28.038-28.038Z" transform="translate(-270.71 -413.638)" fill="#4f4092"/>
          <path id="Path_24" data-name="Path 24" d="M306.1,413.639l-35.394,35.394v-3.678l31.716-31.716Z" transform="translate(-270.71 -413.638)" fill="#504092"/>
          <path id="Path_25" data-name="Path 25" d="M309.781,413.639l-39.073,39.072v-3.678L306.1,413.639Z" transform="translate(-270.71 -413.638)" fill="#504092"/>
          <path id="Path_26" data-name="Path 26" d="M313.459,413.639,270.709,456.39v-3.678l39.073-39.072Z" transform="translate(-270.71 -413.638)" fill="#514092"/>
          <path id="Path_27" data-name="Path 27" d="M317.138,413.639l-46.429,46.429V456.39l42.751-42.751Z" transform="translate(-270.71 -413.638)" fill="#524092"/>
          <path id="Path_28" data-name="Path 28" d="M320.816,413.639l-50.107,50.107v-3.679l46.429-46.429Z" transform="translate(-270.71 -413.638)" fill="#534092"/>
          <path id="Path_29" data-name="Path 29" d="M324.494,413.639l-53.785,53.785v-3.678l50.107-50.107Z" transform="translate(-270.71 -413.638)" fill="#544092"/>
          <path id="Path_30" data-name="Path 30" d="M328.172,413.639,270.709,471.1v-3.678l53.785-53.785Z" transform="translate(-270.71 -413.638)" fill="#554092"/>
          <path id="Path_31" data-name="Path 31" d="M331.85,413.639l-61.142,61.142V471.1l57.464-57.464Z" transform="translate(-270.71 -413.638)" fill="#554092"/>
          <path id="Path_32" data-name="Path 32" d="M335.529,413.639l-64.82,64.82v-3.678l61.142-61.142Z" transform="translate(-270.71 -413.638)" fill="#564092"/>
          <path id="Path_33" data-name="Path 33" d="M339.207,413.639l-68.5,68.5v-3.678l64.82-64.82Z" transform="translate(-270.71 -413.638)" fill="#574092"/>
          <path id="Path_34" data-name="Path 34" d="M342.885,413.639l-72.177,72.176v-3.678l68.5-68.5Z" transform="translate(-270.71 -413.638)" fill="#584092"/>
          <path id="Path_35" data-name="Path 35" d="M346.564,413.639l-75.855,75.855v-3.678l72.177-72.176Z" transform="translate(-270.71 -413.638)" fill="#594092"/>
          <path id="Path_36" data-name="Path 36" d="M350.242,413.639l-79.533,79.533v-3.678l75.855-75.855Z" transform="translate(-270.71 -413.638)" fill="#5a4092"/>
          <path id="Path_37" data-name="Path 37" d="M353.92,413.639,270.709,496.85v-3.678l79.533-79.533Z" transform="translate(-270.71 -413.638)" fill="#5a4092"/>
          <path id="Path_38" data-name="Path 38" d="M357.6,413.639l-86.89,86.889V496.85l83.211-83.211Z" transform="translate(-270.71 -413.638)" fill="#5b4092"/>
          <path id="Path_39" data-name="Path 39" d="M361.276,413.639l-90.568,90.568v-3.678l86.89-86.889Z" transform="translate(-270.71 -413.638)" fill="#5c4092"/>
          <path id="Path_40" data-name="Path 40" d="M364.955,413.639l-94.246,94.246v-3.678l90.568-90.568Z" transform="translate(-270.71 -413.638)" fill="#5d3f91"/>
          <path id="Path_41" data-name="Path 41" d="M368.633,413.639l-97.924,97.924v-3.678l94.246-94.246Z" transform="translate(-270.71 -413.638)" fill="#5e3f91"/>
          <path id="Path_42" data-name="Path 42" d="M372.311,413.639l-101.6,101.6v-3.678l97.924-97.924Z" transform="translate(-270.71 -413.638)" fill="#5f3f91"/>
          <path id="Path_43" data-name="Path 43" d="M375.989,413.639,270.709,518.92v-3.678l101.6-101.6Z" transform="translate(-270.71 -413.638)" fill="#5f3f91"/>
          <path id="Path_44" data-name="Path 44" d="M379.667,413.639,270.709,522.6V518.92L375.989,413.639Z" transform="translate(-270.71 -413.638)" fill="#603f91"/>
          <path id="Path_45" data-name="Path 45" d="M383.346,413.639,270.709,526.276V522.6L379.667,413.639Z" transform="translate(-270.71 -413.638)" fill="#613f91"/>
          <path id="Path_46" data-name="Path 46" d="M387.024,413.639,270.709,529.955v-3.678L383.346,413.639Z" transform="translate(-270.71 -413.638)" fill="#623f91"/>
          <path id="Path_47" data-name="Path 47" d="M390.7,413.639,270.709,533.633v-3.678L387.024,413.639Z" transform="translate(-270.71 -413.638)" fill="#633f91"/>
          <path id="Path_48" data-name="Path 48" d="M394.38,413.639,270.709,537.311v-3.678L390.7,413.639Z" transform="translate(-270.71 -413.638)" fill="#633f91"/>
          <path id="Path_49" data-name="Path 49" d="M398.059,413.639,272.078,539.62l-1.369-1.369v-.94L394.38,413.639Z" transform="translate(-270.71 -413.638)" fill="#643f91"/>
          <path id="Path_50" data-name="Path 50" d="M400.721,413.639,272.9,541.459l-1.839-1.839L397.043,413.639Z" transform="translate(-269.695 -413.638)" fill="#653f91"/>
          <path id="Path_51" data-name="Path 51" d="M403.036,413.639,273.377,543.3l-1.839-1.839,127.82-127.82Z" transform="translate(-268.331 -413.638)" fill="#663f91"/>
          <path id="Path_52" data-name="Path 52" d="M405.351,413.639l-131.5,131.5-1.839-1.839L401.673,413.639Z" transform="translate(-266.968 -413.638)" fill="#673f91"/>
          <path id="Path_53" data-name="Path 53" d="M407.665,413.639,274.328,546.977l-1.839-1.839,131.5-131.5Z" transform="translate(-265.604 -413.638)" fill="#673f91"/>
          <path id="Path_54" data-name="Path 54" d="M409.98,413.639,274.8,548.816l-1.839-1.839L406.3,413.639Z" transform="translate(-264.241 -413.638)" fill="#683f91"/>
          <path id="Path_55" data-name="Path 55" d="M412.295,413.639,275.28,550.655l-1.839-1.839L408.617,413.639Z" transform="translate(-262.877 -413.638)" fill="#693f91"/>
          <path id="Path_56" data-name="Path 56" d="M414.61,413.639,275.755,552.494l-1.839-1.839L410.931,413.639Z" transform="translate(-261.514 -413.638)" fill="#6a3f91"/>
          <path id="Path_57" data-name="Path 57" d="M416.924,413.639,276.231,554.333l-1.839-1.839L413.246,413.639Z" transform="translate(-260.15 -413.638)" fill="#6b3f91"/>
          <path id="Path_58" data-name="Path 58" d="M419.239,413.639,276.706,556.172l-1.839-1.839L415.561,413.639Z" transform="translate(-258.786 -413.638)" fill="#6b3f91"/>
          <path id="Path_59" data-name="Path 59" d="M421.554,413.639,277.182,558.011l-1.839-1.839L417.876,413.639Z" transform="translate(-257.423 -413.638)" fill="#6c3f91"/>
          <path id="Path_60" data-name="Path 60" d="M423.868,413.639,277.657,559.851l-1.839-1.839L420.19,413.639Z" transform="translate(-256.059 -413.638)" fill="#6d3f91"/>
          <path id="Path_61" data-name="Path 61" d="M426.183,413.639,278.133,561.69l-1.839-1.839L422.5,413.639Z" transform="translate(-254.696 -413.638)" fill="#6e3f90"/>
          <path id="Path_62" data-name="Path 62" d="M428.5,413.639,278.608,563.529l-1.839-1.839,148.05-148.05Z" transform="translate(-253.332 -413.638)" fill="#6f3e90"/>
          <path id="Path_63" data-name="Path 63" d="M430.812,413.639,279.084,565.368l-1.839-1.839L427.134,413.639Z" transform="translate(-251.969 -413.638)" fill="#6f3e90"/>
          <path id="Path_64" data-name="Path 64" d="M433.127,413.639,279.559,567.207l-1.839-1.839L429.449,413.639Z" transform="translate(-250.605 -413.638)" fill="#703e90"/>
          <path id="Path_65" data-name="Path 65" d="M435.442,413.639,280.035,569.046l-1.839-1.839L431.763,413.639Z" transform="translate(-249.242 -413.638)" fill="#713e90"/>
          <path id="Path_66" data-name="Path 66" d="M437.756,413.639,280.51,570.885l-1.839-1.839L434.078,413.639Z" transform="translate(-247.878 -413.638)" fill="#723e90"/>
          <path id="Path_67" data-name="Path 67" d="M440.071,413.639,280.986,572.724l-1.839-1.839L436.393,413.639Z" transform="translate(-246.514 -413.638)" fill="#723e90"/>
          <path id="Path_68" data-name="Path 68" d="M442.386,413.639l-160.3,160.3h-1.247l-1.216-1.215L438.707,413.639Z" transform="translate(-245.151 -413.638)" fill="#733e90"/>
          <path id="Path_69" data-name="Path 69" d="M444.238,413.639l-160.3,160.3h-3.678l160.3-160.3Z" transform="translate(-243.325 -413.638)" fill="#743e90"/>
          <path id="Path_70" data-name="Path 70" d="M443.4,413.639l.894.894L284.889,573.94h-3.678l160.3-160.3Z" transform="translate(-240.598 -413.638)" fill="#753e90"/>
          <path id="Path_71" data-name="Path 71" d="M441.567,413.871l1.839,1.839L285.84,573.277h-3.678Z" transform="translate(-237.871 -412.975)" fill="#763e90"/>
          <path id="Path_72" data-name="Path 72" d="M440.68,414.346l1.839,1.839L286.791,571.913h-3.678Z" transform="translate(-235.143 -411.611)" fill="#763e90"/>
          <path id="Path_73" data-name="Path 73" d="M439.792,414.822l.912.913v1.853L287.742,570.55h-3.678Z" transform="translate(-232.416 -410.248)" fill="#773e90"/>
          <path id="Path_74" data-name="Path 74" d="M437.977,419.215,288.693,568.5h-3.678L437.977,415.537Z" transform="translate(-229.689 -408.197)" fill="#783e90"/>
          <path id="Path_75" data-name="Path 75" d="M435.25,420.166,289.644,565.772h-3.678L435.25,416.488Z" transform="translate(-226.962 -405.47)" fill="#793e90"/>
          <path id="Path_76" data-name="Path 76" d="M432.523,421.117,290.6,563.045h-3.678L432.523,417.439Z" transform="translate(-224.235 -402.743)" fill="#7a3e90"/>
          <path id="Path_77" data-name="Path 77" d="M429.8,422.068,291.546,560.318h-3.678L429.8,418.39Z" transform="translate(-221.508 -400.016)" fill="#7b3e90"/>
          <path id="Path_78" data-name="Path 78" d="M427.068,423.02,292.5,557.591h-3.678L427.068,419.341Z" transform="translate(-218.781 -397.288)" fill="#7b3e90"/>
          <path id="Path_79" data-name="Path 79" d="M424.341,423.97,293.449,554.863H289.77L424.341,420.292Z" transform="translate(-216.054 -394.561)" fill="#7c3e90"/>
          <path id="Path_80" data-name="Path 80" d="M421.614,424.922,294.4,552.136h-3.678L421.614,421.244Z" transform="translate(-213.326 -391.834)" fill="#7d3d90"/>
          <path id="Path_81" data-name="Path 81" d="M418.887,425.873,295.351,549.409h-3.678L418.887,422.195Z" transform="translate(-210.599 -389.107)" fill="#7e3d8f"/>
          <path id="Path_82" data-name="Path 82" d="M416.16,426.824,296.3,546.682h-3.678L416.16,423.146Z" transform="translate(-207.872 -386.38)" fill="#7f3d8f"/>
          <path id="Path_83" data-name="Path 83" d="M413.433,427.775l-116.18,116.18h-3.678L413.433,424.1Z" transform="translate(-205.145 -383.653)" fill="#7f3d8f"/>
          <path id="Path_84" data-name="Path 84" d="M410.706,428.726l-112.5,112.5h-3.678l116.18-116.18Z" transform="translate(-202.418 -380.926)" fill="#803d8f"/>
          <path id="Path_85" data-name="Path 85" d="M407.978,429.677,299.155,538.5h-3.678L407.978,426Z" transform="translate(-199.691 -378.199)" fill="#813d8f"/>
          <path id="Path_86" data-name="Path 86" d="M405.251,430.628,300.106,535.773h-3.678L405.251,426.95Z" transform="translate(-196.964 -375.472)" fill="#823d8f"/>
          <path id="Path_87" data-name="Path 87" d="M402.524,431.579,301.057,533.046h-3.678L402.524,427.9Z" transform="translate(-194.236 -372.744)" fill="#833d8f"/>
          <path id="Path_88" data-name="Path 88" d="M399.8,432.531l-97.788,97.789H298.33L399.8,428.852Z" transform="translate(-191.509 -370.017)" fill="#833d8f"/>
          <path id="Path_89" data-name="Path 89" d="M397.07,433.481l-94.11,94.111h-3.678L397.07,429.8Z" transform="translate(-188.782 -367.29)" fill="#843d8f"/>
          <path id="Path_90" data-name="Path 90" d="M394.343,434.433,303.91,524.865h-3.678l94.11-94.111Z" transform="translate(-186.055 -364.563)" fill="#853d8f"/>
          <path id="Path_91" data-name="Path 91" d="M391.616,435.384l-86.754,86.754h-3.678l90.432-90.432Z" transform="translate(-183.328 -361.836)" fill="#863d8f"/>
          <path id="Path_92" data-name="Path 92" d="M388.889,436.335l-83.076,83.076h-3.678l86.754-86.754Z" transform="translate(-180.601 -359.109)" fill="#873d8f"/>
          <path id="Path_93" data-name="Path 93" d="M386.161,437.286l-79.4,79.4h-3.678l83.076-83.076Z" transform="translate(-177.874 -356.381)" fill="#873d8f"/>
          <path id="Path_94" data-name="Path 94" d="M383.434,438.237l-75.72,75.719h-3.678l79.4-79.4Z" transform="translate(-175.147 -353.655)" fill="#883d8f"/>
          <path id="Path_95" data-name="Path 95" d="M380.707,439.188l-72.041,72.041h-3.678l75.719-75.719Z" transform="translate(-172.419 -350.927)" fill="#893d8f"/>
          <path id="Path_96" data-name="Path 96" d="M377.98,440.139,309.617,508.5h-3.678l72.041-72.041Z" transform="translate(-169.692 -348.2)" fill="#8a3c8f"/>
          <path id="Path_97" data-name="Path 97" d="M375.253,441.09l-64.685,64.685H306.89l68.363-68.363Z" transform="translate(-166.965 -345.473)" fill="#8b3c8f"/>
          <path id="Path_98" data-name="Path 98" d="M372.526,442.041l-61.007,61.006h-3.678l64.685-64.685Z" transform="translate(-164.238 -342.746)" fill="#8c3c8f"/>
          <path id="Path_99" data-name="Path 99" d="M308.792,500.321,369.8,439.314v61.006Z" transform="translate(-161.511 -340.019)" fill="#8c3c8f"/>
        </g>
      </g>
    </g>
    <g id="Group_10" data-name="Group 10" transform="translate(324.912 466.223)">
      <path id="Path_101" data-name="Path 101" d="M407.6,806.16c-81.783,0-148.313-66.538-148.313-148.317a148.059,148.059,0,0,1,66.689-123.852c15.226-10.055,24.314-27.431,24.314-46.482V352.968a5.8,5.8,0,0,1,11.6,0V487.509c0,22.96-11.038,43.956-29.52,56.166A136.468,136.468,0,0,0,270.89,657.843c0,75.382,61.329,136.715,136.711,136.715s136.711-61.333,136.711-136.715a136.483,136.483,0,0,0-61.48-114.168c-18.486-12.209-29.527-33.205-29.527-56.166V352.968a5.8,5.8,0,0,1,11.6,0V487.509c0,19.051,9.092,36.427,24.314,46.482a148.053,148.053,0,0,1,66.693,123.852C555.914,739.622,489.38,806.16,407.6,806.16Z" transform="translate(-259.288 -347.167)" fill="#132233"/>
    </g>
    <g id="Group_11" data-name="Group 11" transform="translate(363.276 717.497)">
      <path id="Path_102" data-name="Path 102" d="M379.157,584.04A110.072,110.072,0,0,1,269.208,474.095a106.9,106.9,0,0,1,17.805-59.325,5.806,5.806,0,0,1,4.857-2.63h0l175.01,0a5.805,5.805,0,0,1,4.885,2.669A109.963,109.963,0,0,1,379.157,584.04Zm-84.088-160.3a95.2,95.2,0,0,0-14.259,50.353,98.345,98.345,0,1,0,182.841-50.349Z" transform="translate(-269.208 -412.14)" fill="#132233"/>
    </g>
    <g id="Group_12" data-name="Group 12" transform="translate(475.158 782.171)">
      <path id="Path_103" data-name="Path 103" d="M303.939,507.626a5.8,5.8,0,0,1,0-11.6,61.428,61.428,0,0,0,61.356-61.36,5.8,5.8,0,1,1,11.6,0A73.042,73.042,0,0,1,303.939,507.626Z" transform="translate(-298.138 -428.863)" fill="#132233"/>
    </g>
    <g id="Group_15" data-name="Group 15" transform="translate(418.092 682.227)">
      <g id="Group_13" data-name="Group 13" transform="translate(1.934 1.934)">
        <path id="Path_104" data-name="Path 104" d="M386.413,443.5a3.864,3.864,0,0,1-3.867-3.868V411.255h-90.93v28.379a3.867,3.867,0,1,1-7.734,0V407.387a3.866,3.866,0,0,1,3.867-3.867h98.664a3.867,3.867,0,0,1,3.868,3.867v32.246A3.866,3.866,0,0,1,386.413,443.5Z" transform="translate(-283.882 -403.52)" fill="#132233"/>
      </g>
      <g id="Group_14" data-name="Group 14">
        <path id="Path_105" data-name="Path 105" d="M387.847,446.868a5.8,5.8,0,0,1-5.8-5.8V414.622H294.984v26.445a5.8,5.8,0,0,1-11.6,0V408.821a5.8,5.8,0,0,1,5.8-5.8h98.664a5.8,5.8,0,0,1,5.8,5.8v32.246A5.8,5.8,0,0,1,387.847,446.868Z" transform="translate(-283.382 -403.02)" fill="#132233"/>
      </g>
    </g>
    <g id="Group_16" data-name="Group 16" transform="translate(439.041 507.353)">
      <path id="Path_106" data-name="Path 106" d="M294.6,543.961a5.8,5.8,0,0,1-5.8-5.8V363.6a5.8,5.8,0,1,1,11.6,0V538.16A5.8,5.8,0,0,1,294.6,543.961Z" transform="translate(-288.799 -357.802)" fill="#132233"/>
    </g>
    <g id="Group_17" data-name="Group 17" transform="translate(392.633 615.639)">
      <path id="Path_107" data-name="Path 107" d="M282.6,430.292a5.8,5.8,0,0,1-5.8-5.8V391.6a5.8,5.8,0,0,1,11.6,0v32.888A5.8,5.8,0,0,1,282.6,430.292Z" transform="translate(-276.799 -385.802)" fill="#132233"/>
    </g>
    <g id="Group_18" data-name="Group 18" transform="translate(543.46 615.639)">
      <path id="Path_108" data-name="Path 108" d="M321.6,430.292a5.8,5.8,0,0,1-5.8-5.8V391.6a5.8,5.8,0,0,1,11.6,0v32.888A5.8,5.8,0,0,1,321.6,430.292Z" transform="translate(-315.799 -385.802)" fill="#132233"/>
    </g>
    <g id="Group_19" data-name="Group 19" transform="translate(459.689 522.822)">
      <path id="Path_109" data-name="Path 109" d="M299.939,380.5a5.8,5.8,0,0,1-5.8-5.8v-7.1a5.8,5.8,0,0,1,11.6,0v7.1A5.8,5.8,0,0,1,299.939,380.5Z" transform="translate(-294.138 -361.802)" fill="#132233"/>
    </g>
    <g id="Group_20" data-name="Group 20" transform="translate(475.158 522.822)">
      <path id="Path_110" data-name="Path 110" d="M303.939,380.5a5.8,5.8,0,0,1-5.8-5.8v-7.1a5.8,5.8,0,0,1,11.6,0v7.1A5.8,5.8,0,0,1,303.939,380.5Z" transform="translate(-298.138 -361.802)" fill="#132233"/>
    </g>
    <g id="Group_21" data-name="Group 21" transform="translate(459.689 464.812)">
      <path id="Path_111" data-name="Path 111" d="M299.939,361.633a5.8,5.8,0,0,1-5.8-5.8V352.6a5.8,5.8,0,1,1,11.6,0v3.229A5.8,5.8,0,0,1,299.939,361.633Z" transform="translate(-294.138 -346.802)" fill="#132233"/>
    </g>
    <g id="Group_22" data-name="Group 22" transform="translate(475.158 464.812)">
      <path id="Path_112" data-name="Path 112" d="M303.939,361.633a5.8,5.8,0,0,1-5.8-5.8V352.6a5.8,5.8,0,1,1,11.6,0v3.229A5.8,5.8,0,0,1,303.939,361.633Z" transform="translate(-298.138 -346.802)" fill="#132233"/>
    </g>
    <g id="Group_23" data-name="Group 23" transform="translate(459.689 549.894)">
      <path id="Path_113" data-name="Path 113" d="M299.939,387.5a5.8,5.8,0,0,1-5.8-5.8v-7.1a5.8,5.8,0,1,1,11.6,0v7.1A5.8,5.8,0,0,1,299.939,387.5Z" transform="translate(-294.138 -368.802)" fill="#132233"/>
    </g>
    <g id="Group_24" data-name="Group 24" transform="translate(475.158 549.894)">
      <path id="Path_114" data-name="Path 114" d="M303.939,387.5a5.8,5.8,0,0,1-5.8-5.8v-7.1a5.8,5.8,0,1,1,11.6,0v7.1A5.8,5.8,0,0,1,303.939,387.5Z" transform="translate(-298.138 -368.802)" fill="#132233"/>
    </g>
    <g id="Group_25" data-name="Group 25" transform="translate(459.689 576.965)">
      <path id="Path_115" data-name="Path 115" d="M299.939,394.5a5.8,5.8,0,0,1-5.8-5.8v-7.1a5.8,5.8,0,1,1,11.6,0v7.1A5.8,5.8,0,0,1,299.939,394.5Z" transform="translate(-294.138 -375.802)" fill="#132233"/>
    </g>
    <g id="Group_26" data-name="Group 26" transform="translate(475.158 576.965)">
      <path id="Path_116" data-name="Path 116" d="M303.939,394.5a5.8,5.8,0,0,1-5.8-5.8v-7.1a5.8,5.8,0,1,1,11.6,0v7.1A5.8,5.8,0,0,1,303.939,394.5Z" transform="translate(-298.138 -375.802)" fill="#132233"/>
    </g>
    <g id="Group_27" data-name="Group 27" transform="translate(459.689 604.037)">
      <path id="Path_117" data-name="Path 117" d="M299.939,401.5a5.8,5.8,0,0,1-5.8-5.8v-7.1a5.8,5.8,0,0,1,11.6,0v7.1A5.8,5.8,0,0,1,299.939,401.5Z" transform="translate(-294.138 -382.802)" fill="#132233"/>
    </g>
    <g id="Group_28" data-name="Group 28" transform="translate(475.158 604.037)">
      <path id="Path_118" data-name="Path 118" d="M303.939,401.5a5.8,5.8,0,0,1-5.8-5.8v-7.1a5.8,5.8,0,0,1,11.6,0v7.1A5.8,5.8,0,0,1,303.939,401.5Z" transform="translate(-298.138 -382.802)" fill="#132233"/>
    </g>
    <g id="Group_29" data-name="Group 29" transform="translate(459.689 631.108)">
      <path id="Path_119" data-name="Path 119" d="M299.939,408.5a5.8,5.8,0,0,1-5.8-5.8v-7.1a5.8,5.8,0,1,1,11.6,0v7.1A5.8,5.8,0,0,1,299.939,408.5Z" transform="translate(-294.138 -389.802)" fill="#132233"/>
    </g>
    <g id="Group_30" data-name="Group 30" transform="translate(475.158 631.108)">
      <path id="Path_120" data-name="Path 120" d="M303.939,408.5a5.8,5.8,0,0,1-5.8-5.8v-7.1a5.8,5.8,0,1,1,11.6,0v7.1A5.8,5.8,0,0,1,303.939,408.5Z" transform="translate(-298.138 -389.802)" fill="#132233"/>
    </g>
    <g id="Group_31" data-name="Group 31" transform="translate(459.689 658.18)">
      <path id="Path_121" data-name="Path 121" d="M299.939,415.5a5.8,5.8,0,0,1-5.8-5.8v-7.1a5.8,5.8,0,1,1,11.6,0v7.1A5.8,5.8,0,0,1,299.939,415.5Z" transform="translate(-294.138 -396.802)" fill="#132233"/>
    </g>
    <g id="Group_32" data-name="Group 32" transform="translate(475.158 658.18)">
      <path id="Path_122" data-name="Path 122" d="M303.939,415.5a5.8,5.8,0,0,1-5.8-5.8v-7.1a5.8,5.8,0,1,1,11.6,0v7.1A5.8,5.8,0,0,1,303.939,415.5Z" transform="translate(-298.138 -396.802)" fill="#132233"/>
    </g>
    <g id="Group_33" data-name="Group 33" transform="translate(495.164 507.353)">
      <path id="Path_123" data-name="Path 123" d="M309.112,543.961a5.8,5.8,0,0,1-5.8-5.8V363.6a5.8,5.8,0,1,1,11.6,0V538.16A5.8,5.8,0,0,1,309.112,543.961Z" transform="translate(-303.311 -357.802)" fill="#132233"/>
    </g>
    <g id="Group_36" data-name="Group 36" transform="translate(418.041 485.398)">
      <g id="Group_34" data-name="Group 34" transform="translate(1.934 1.934)">
        <path id="Path_124" data-name="Path 124" d="M386.4,381.874H287.736a3.869,3.869,0,0,1-3.867-3.867V356.492a3.869,3.869,0,0,1,3.867-3.867H386.4a3.866,3.866,0,0,1,3.867,3.867v21.514A3.866,3.866,0,0,1,386.4,381.874Zm-94.8-7.734h90.93V360.36H291.6Z" transform="translate(-283.869 -352.625)" fill="#132233"/>
      </g>
      <g id="Group_35" data-name="Group 35">
        <path id="Path_125" data-name="Path 125" d="M387.834,385.241H289.17a5.8,5.8,0,0,1-5.8-5.8V357.926a5.8,5.8,0,0,1,5.8-5.8h98.664a5.8,5.8,0,0,1,5.8,5.8V379.44A5.8,5.8,0,0,1,387.834,385.241Zm-92.863-11.6h87.062v-9.912H294.971Z" transform="translate(-283.369 -352.125)" fill="#132233"/>
      </g>
    </g>
    <g id="Group_40" data-name="Group 40" transform="translate(434.536 425.581)">
      <g id="Group_37" data-name="Group 37" transform="translate(1.934 1.934)">
        <path id="Path_126" data-name="Path 126" d="M357.777,403.572a3.866,3.866,0,0,1-3.867-3.867V344.893H295.869V399.7a3.867,3.867,0,1,1-7.735,0V341.026A3.866,3.866,0,0,1,292,337.158h65.776a3.866,3.866,0,0,1,3.867,3.868V399.7A3.869,3.869,0,0,1,357.777,403.572Z" transform="translate(-288.134 -337.158)" fill="#132233"/>
      </g>
      <g id="Group_38" data-name="Group 38" transform="translate(1.934 1.934)">
        <path id="Path_127" data-name="Path 127" d="M357.777,403.572a3.866,3.866,0,0,1-3.867-3.867V344.893H295.869V399.7a3.867,3.867,0,1,1-7.735,0V341.026A3.866,3.866,0,0,1,292,337.158h65.776a3.866,3.866,0,0,1,3.867,3.868V399.7A3.869,3.869,0,0,1,357.777,403.572Z" transform="translate(-288.134 -337.158)" fill="#132233"/>
      </g>
      <g id="Group_39" data-name="Group 39">
        <path id="Path_128" data-name="Path 128" d="M359.211,406.939a5.8,5.8,0,0,1-5.8-5.8V348.26H299.236v52.879a5.8,5.8,0,0,1-11.6,0v-58.68a5.8,5.8,0,0,1,5.8-5.8h65.776a5.8,5.8,0,0,1,5.8,5.8v58.68A5.8,5.8,0,0,1,359.211,406.939Z" transform="translate(-287.634 -336.658)" fill="#132233"/>
      </g>
    </g>
    <g id="Group_44" data-name="Group 44" transform="translate(445.496 378.531)">
      <g id="Group_41" data-name="Group 41" transform="translate(1.934 1.934)">
        <path id="Path_129" data-name="Path 129" d="M338.687,376.579a3.866,3.866,0,0,1-3.867-3.868V332.727H298.7v39.984a3.867,3.867,0,1,1-7.735,0V328.859a3.869,3.869,0,0,1,3.867-3.867h43.852a3.869,3.869,0,0,1,3.867,3.867v43.852A3.869,3.869,0,0,1,338.687,376.579Z" transform="translate(-290.968 -324.992)" fill="#132233"/>
      </g>
      <g id="Group_42" data-name="Group 42" transform="translate(1.934 1.934)">
        <path id="Path_130" data-name="Path 130" d="M338.687,376.579a3.866,3.866,0,0,1-3.867-3.868V332.727H298.7v39.984a3.867,3.867,0,1,1-7.735,0V328.859a3.869,3.869,0,0,1,3.867-3.867h43.852a3.869,3.869,0,0,1,3.867,3.867v43.852A3.869,3.869,0,0,1,338.687,376.579Z" transform="translate(-290.968 -324.992)" fill="#132233"/>
      </g>
      <g id="Group_43" data-name="Group 43">
        <path id="Path_131" data-name="Path 131" d="M340.121,379.946a5.8,5.8,0,0,1-5.8-5.8V336.094H302.07v38.051a5.8,5.8,0,0,1-11.6,0V330.293a5.8,5.8,0,0,1,5.8-5.8h43.852a5.8,5.8,0,0,1,5.8,5.8v43.852A5.8,5.8,0,0,1,340.121,379.946Z" transform="translate(-290.468 -324.492)" fill="#132233"/>
      </g>
    </g>
    <g id="Group_45" data-name="Group 45" transform="translate(434.536 447.935)">
      <path id="Path_132" data-name="Path 132" d="M359.211,354.04H293.435a5.8,5.8,0,1,1,0-11.6h65.776a5.8,5.8,0,1,1,0,11.6Z" transform="translate(-287.634 -342.438)" fill="#132233"/>
    </g>
    <g id="Group_46" data-name="Group 46" transform="translate(461.944 397.891)">
      <path id="Path_133" data-name="Path 133" d="M306,352.064a11.283,11.283,0,1,1,11.281-11.281A11.294,11.294,0,0,1,306,352.064Zm0-11.6a.32.32,0,0,0-.321.321c0,.348.642.348.642,0A.32.32,0,0,0,306,340.462Z" transform="translate(-294.721 -329.498)" fill="#132233"/>
    </g>
    <g id="Group_47" data-name="Group 47" transform="translate(466.768 305.646)">
      <path id="Path_134" data-name="Path 134" d="M295.968,384.333l6.456-78.687,6.456,78.687Z" transform="translate(-295.968 -305.646)" fill="#132233"/>
    </g>
    <g id="Group_51" data-name="Group 51" transform="translate(448.404 700.28)">
      <g id="Group_48" data-name="Group 48">
        <path id="Path_135" data-name="Path 135" d="M296.7,407.688a5.48,5.48,0,1,0,5.48,5.48A5.481,5.481,0,0,0,296.7,407.688Z" transform="translate(-291.22 -407.688)" fill="#132233"/>
      </g>
      <g id="Group_49" data-name="Group 49" transform="translate(19.337)">
        <path id="Path_136" data-name="Path 136" d="M301.7,407.688a5.48,5.48,0,1,0,5.48,5.48A5.481,5.481,0,0,0,301.7,407.688Z" transform="translate(-296.22 -407.688)" fill="#132233"/>
      </g>
      <g id="Group_50" data-name="Group 50" transform="translate(38.674)">
        <path id="Path_137" data-name="Path 137" d="M306.7,407.688a5.48,5.48,0,1,0,5.48,5.48A5.481,5.481,0,0,0,306.7,407.688Z" transform="translate(-301.22 -407.688)" fill="#132233"/>
      </g>
    </g>
    <g id="Group_52" data-name="Group 52" transform="translate(554.164 540.976)" opacity="0.1">
      <rect id="Rectangle_8" data-name="Rectangle 8" width="76.738" height="21.925" rx="10.963" fill="#132233"/>
    </g>
    <g id="Group_53" data-name="Group 53" transform="translate(538.055 370.812)" opacity="0.1">
      <rect id="Rectangle_9" data-name="Rectangle 9" width="54.813" height="21.925" rx="10.963" fill="#132233"/>
    </g>
    <g id="Group_54" data-name="Group 54" transform="translate(566.405 439.113)" opacity="0.1">
      <path id="Path_138" data-name="Path 138" d="M413.941,384.009H402.308a10.962,10.962,0,1,1,0-21.924h7.124a10.964,10.964,0,0,0,0-21.928H332.7a10.964,10.964,0,0,0,0,21.928h30.328a10.962,10.962,0,1,1,0,21.924h-3.895a10.962,10.962,0,1,0,0,21.924h54.812a10.962,10.962,0,0,0,0-21.924Z" transform="translate(-321.732 -340.157)" fill="#132233"/>
    </g>
    <g id="Group_55" data-name="Group 55" transform="translate(656.708 401.766)" opacity="0.1">
      <circle id="Ellipse_6" data-name="Ellipse 6" cx="10.963" cy="10.963" r="10.963" fill="#132233"/>
    </g>
    <g id="Group_56" data-name="Group 56" transform="translate(656.708 579.665)" opacity="0.1">
      <circle id="Ellipse_7" data-name="Ellipse 7" cx="10.963" cy="10.963" r="10.963" fill="#132233"/>
    </g>
    <g id="Group_57" data-name="Group 57" transform="translate(284.132 595.119)" opacity="0.1">
      <rect id="Rectangle_10" data-name="Rectangle 10" width="76.738" height="21.925" rx="10.963" transform="translate(76.738 21.925) rotate(180)" fill="#132233"/>
    </g>
    <g id="Group_58" data-name="Group 58" transform="translate(322.166 424.955)" opacity="0.1">
      <rect id="Rectangle_11" data-name="Rectangle 11" width="54.813" height="21.925" rx="10.963" transform="translate(54.813 21.925) rotate(-180)" fill="#132233"/>
    </g>
    <g id="Group_59" data-name="Group 59" transform="translate(245.457 493.256)" opacity="0.1">
      <path id="Path_139" data-name="Path 139" d="M330.952,354.157h-76.74a10.964,10.964,0,0,0,0,21.928h7.128a10.962,10.962,0,1,1,0,21.924H249.707a10.962,10.962,0,1,0,0,21.924h54.812a10.962,10.962,0,1,0,0-21.924h-3.9a10.962,10.962,0,0,1,0-21.924h30.332a10.964,10.964,0,1,0,0-21.928Z" transform="translate(-238.743 -354.157)" fill="#132233"/>
    </g>
    <g id="Group_60" data-name="Group 60" transform="translate(236.402 455.909)" opacity="0.1">
      <circle id="Ellipse_8" data-name="Ellipse 8" cx="10.963" cy="10.963" r="10.963" fill="#132233"/>
    </g>
    <g id="Group_61" data-name="Group 61" transform="translate(236.402 633.808)" opacity="0.1">
      <circle id="Ellipse_9" data-name="Ellipse 9" cx="10.963" cy="10.963" r="10.963" fill="#132233"/>
    </g>
  </g>
</svg>
