<svg xmlns="http://www.w3.org/2000/svg" width="53.407" height="22.31" viewBox="0 0 53.407 22.31">
  <g id="meetup-logo" transform="translate(0 -28.385)">
    <g id="Group_73" data-name="Group 73" transform="translate(0 28.385)">
      <path id="Path_177" data-name="Path 177" d="M10.99,36.756a1.653,1.653,0,0,0-.8-1.018,5.516,5.516,0,0,0-1.877-.182.845.845,0,0,0-.651.38,29.367,29.367,0,0,0-1.2,3.219c-.331,1.16-.515,2.36-.785,3.629-.121-.2-.217-.349-.3-.5-.6-1.145-1.189-2.292-1.788-3.435s-.941-1.321-2.237-1.107A3.8,3.8,0,0,0,.406,38a.619.619,0,0,0-.323.433A42.337,42.337,0,0,0,.294,46.37c.279,1.831.619,2.067,2.369,1.4.087-.034.167-.083.254-.12a.735.735,0,0,0,.5-.885c-.125-.782-.214-1.57-.315-2.356l.11-.009c.527.857,1.071,1.7,1.578,2.574.415.708.9,1.171,1.809.9.352-.105.759-.034,1.111-.141a1.119,1.119,0,0,0,.635-.494,2.78,2.78,0,0,0,.2-1.029c.085-1.475.144-2.954.221-4.43.013-.272.067-.542.11-.868.792,2.533,1.565,4.959,2.3,7.4.128.426.274.6.727.468.628-.184,1.265-.331,1.783-.463-.569-2.51-1.114-4.953-1.677-7.393C11.7,39.527,11.388,38.128,10.99,36.756Z" transform="translate(0 -31.627)" fill="#132233"/>
      <path id="Path_178" data-name="Path 178" d="M89.59,40.757c-.117-1.058-.423-2.082-1.709-2.38-.473-.111-.905-.438-1.379-.509a2.774,2.774,0,0,0-1.537.1,5.8,5.8,0,0,0-3.021,3.864c-.408,1.532-.619,3.116-.932,4.673a.756.756,0,0,1-.267.492c-.75.391-.8.829-.189,1.406a1.483,1.483,0,0,1,.393.81c.271,1.731.5,3.469.764,5.2.03.2.208.526.329.532.716.031,1.434-.017,2.165-.038-.7-2.88-.876-4.723-.582-6a5.27,5.27,0,0,0,1.312-.5c.958-.7,1.865-1.479,2.774-2.247A5.763,5.763,0,0,0,89.59,40.757ZM83.7,46.45c.51-2.467.817-4.941,2.876-6.727A5.428,5.428,0,0,1,83.7,46.45Z" transform="translate(-36.241 -32.647)" fill="#132233"/>
      <path id="Path_179" data-name="Path 179" d="M30.462,48.143a1.666,1.666,0,0,1-2.368-.616,4.2,4.2,0,0,1-.411-2.986c1.149.059,2.218.113,3.288.171.409.022.525-.177.62-.568a15.657,15.657,0,0,0-.019-4.62c-.048-.879-.253-1.609-1.357-1.8-1-.172-1.888-.485-2.8.34a6.177,6.177,0,0,0-2.136,2.875,18.106,18.106,0,0,0-.417,4.725,3.293,3.293,0,0,0,1.66,3.091,6.716,6.716,0,0,0,6.508-.05A2.183,2.183,0,0,0,30.462,48.143Zm-2.453-6.169a17.446,17.446,0,0,1,.642-1.685l.237.059c.02.862.039,1.725.058,2.644C27.777,42.941,27.748,42.933,28.009,41.974Z" transform="translate(-11.241 -32.517)" fill="#132233"/>
      <path id="Path_180" data-name="Path 180" d="M46.05,46.871a1.012,1.012,0,0,0-.637.062,13.04,13.04,0,0,1-1.224.689,1.7,1.7,0,0,1-2-.417,2.687,2.687,0,0,1-.842-2.767c1.2.163,2.382.584,3.464-.1.108-1.255.2-2.442.316-3.625.1-1,.243-1.989.295-2.988a.946.946,0,0,0-.432-.715,9.644,9.644,0,0,0-1.828-.7c-.289-.079-.773-.082-.927.093a13.918,13.918,0,0,0-2.36,3.013,11.124,11.124,0,0,0-1.128,5.125,4,4,0,0,0,2.96,3.931c.5.125,1.027.119,1.53.228a5.233,5.233,0,0,0,3.586-.827A.946.946,0,0,0,46.05,46.871Zm-3.4-7.191.227.053c-.012.848.02,1.7-.047,2.543-.078,1.008-.15,1.027-1.338.669C41.884,41.85,42.27,40.764,42.654,39.68Z" transform="translate(-17.52 -31.949)" fill="#132233"/>
      <path id="Path_181" data-name="Path 181" d="M57.411,38.254c-.012.15-.178.286-.274.43a1.522,1.522,0,0,1-.19-.535c.021-.455.158-.907.152-1.359-.026-2.061-.151-4.123-.105-6.181.029-1.34.092-1.406-1.157-1.968-1.218-.547-1.793-.233-1.826,1.108a37.53,37.53,0,0,0,.114,3.8c.136,1.747.353,3.488.545,5.335-.514-.022-.975-.039-1.433-.066-.547-.032-.927.16-.97.753s.322.759.844.768c.557.011,1.111.058,1.713.092.077.957.157,1.84.217,2.725s.1,1.756.151,2.679l1.874-.311c-.036-.868-.08-1.662-.1-2.458s.021-1.591-.035-2.382c-.034-.45.21-.431.5-.468.825-.1,1.648-.225,2.47-.339.038-.083.077-.167.113-.249-.661-.59-1.3-1.214-2-1.751C57.734,37.655,57.448,37.818,57.411,38.254Z" transform="translate(-23.635 -28.385)" fill="#132233"/>
      <path id="Path_182" data-name="Path 182" d="M73.782,44.253a7.52,7.52,0,0,0-.965-.418c-.222-.062-.583-.089-.7.038a1.452,1.452,0,0,0-.348.851c-.025.41.12.828.122,1.243a5.67,5.67,0,0,1-1.939,4.676,2.887,2.887,0,0,1-.163-.54c-.089-1.4-.217-2.809-.231-4.216-.013-1.377.015-1.416-1.279-1.986-.194-.085-.382-.189-.582-.254-.666-.215-.993,0-1.016.7a7.441,7.441,0,0,0,.045,1.475c.281,1.68.561,3.362.929,5.025a1.392,1.392,0,0,0,1.335,1.172,7.536,7.536,0,0,0,1.884-.168,2.072,2.072,0,0,0,.919-.645c.373-.4.656-.876,1.012-1.291a6.4,6.4,0,0,0,1.86-3.995A1.474,1.474,0,0,0,73.782,44.253Z" transform="translate(-30.149 -35.252)" fill="#132233"/>
    </g>
  </g>
</svg>
