<?xml version="1.0" encoding="UTF-8"?>
<svg width="199px" height="48px" viewBox="0 0 199 48" version="1.1" xmlns="http://www.w3.org/2000/svg" xmlns:xlink="http://www.w3.org/1999/xlink">
    <!-- Generator: Sketch 55.2 (78181) - https://sketchapp.com -->
    <title>shedul logo</title>
    <desc>Created with Sketch.</desc>
    <g id="shedul-logo" stroke="none" stroke-width="1" fill="none" fill-rule="evenodd">
        <g id="shedul_logo">
            <path d="M12.5835566,28.4099517 C8.43583257,26.827005 6.52787952,25.6403276 6.52787952,23.0027933 C6.52787952,20.6294385 8.43583257,18.6502225 11.8603637,18.6502225 C14.8233276,18.6502225 17.1269097,19.7048102 18.377608,20.4973487 L19.8261209,16.2768677 C18.0479171,15.2222801 15.2189566,14.2997822 11.9922401,14.2997822 C5.14530484,14.2997822 0.999707844,18.5202632 0.999707844,23.6632421 C0.999707844,27.4874538 3.69891902,30.6533472 9.42490523,32.6964776 C13.7045056,34.2794243 15.348706,35.7963261 15.348706,38.5638197 C15.348706,41.201354 13.3748147,43.3105293 9.16115252,43.3105293 C6.26412681,43.3105293 3.23735178,42.1238519 1.52508622,41.0032194 L0.0765733668,45.4218351 C2.31421731,46.7406022 5.5409339,47.5970552 9.02927617,47.5970552 C16.5994043,47.5970552 20.9449429,43.6407537 20.9449429,38.0354607 C20.9449429,33.2887511 18.1138553,30.5212575 12.5835566,28.4099517 Z M44.3763931,14.2997822 C42.2046873,14.2997822 40.1627309,14.9581006 38.4525923,15.9487738 C36.6743886,16.9373165 35.2280028,18.3881735 34.3048683,20.037165 L34.172992,20.037165 L34.172992,0.125698324 L28.3810676,0.125698324 L28.3810676,46.9387369 L34.172992,46.9387369 L34.172992,27.6855885 C34.172992,26.564956 34.2389301,25.708503 34.568621,24.9159644 C35.6215048,21.750071 38.5844687,19.1146672 42.3365637,19.1146672 C47.8009242,19.1146672 49.7088773,23.467238 49.7088773,28.6102168 L49.7088773,46.9408673 L55.5008016,46.9408673 L55.5008016,27.9518985 C55.5008016,16.9373165 48.6559935,14.2997822 44.3763931,14.2997822 Z M77.5496772,14.2997822 C68.2672835,14.2997822 62.6072355,21.8821608 62.6072355,31.5076697 C62.6072355,41.1331787 68.4650981,47.5949247 78.2749971,47.5949247 C83.3437286,47.5949247 86.8320709,46.5403371 88.8740273,45.6178392 L87.8870817,41.4634031 C85.715376,42.385901 83.2139793,43.1123947 79.0662553,43.1123947 C73.2743309,43.1123947 68.2694106,39.8825869 68.1396612,32.0360288 L90.5203547,32.0360288 C90.5862929,31.4416248 90.7181693,30.519127 90.7181693,29.3324496 C90.7160422,23.4651075 87.9508929,14.2997822 77.5496772,14.2997822 Z M85.1198053,27.8837231 L68.2013453,27.8837231 C68.6629126,23.8613768 71.2302474,18.4542184 77.08811,18.4542184 C83.6074813,18.4542184 85.1857435,24.1916012 85.1198053,27.8837231 Z M125.403777,0.123567844 L119.611853,0.123567844 L119.611853,19.1785816 L119.479977,19.1785816 C118.031464,16.6070921 114.740936,14.2997822 109.870019,14.2997822 C102.102076,14.2997822 95.5188939,20.8275731 95.5848321,31.4437553 C95.5848321,41.1353092 101.508633,47.6631001 109.210637,47.6631001 C114.411245,47.6631001 118.295216,44.9595209 120.071293,41.3994887 L120.20317,41.3994887 L120.466922,46.9387369 L125.66753,46.9387369 C125.469716,44.7635167 125.403777,41.5315784 125.403777,38.6959095 L125.403777,0.123567844 L125.403777,0.123567844 Z M119.611853,33.5529306 C119.611853,34.4754285 119.545915,35.267967 119.3481,36.0583752 C118.295216,40.4109459 114.740936,42.9824354 110.856965,42.9824354 C104.603473,42.9824354 101.442695,37.6413218 101.442695,31.1795758 C101.442695,24.1255563 104.996975,18.8504876 110.986714,18.8504876 C115.332253,18.8504876 118.490904,21.8842913 119.345973,25.5764132 C119.543788,26.3007764 119.609726,27.2914497 119.609726,28.0158129 L119.609726,33.5529306 L119.611853,33.5529306 Z M161.671902,15.0262759 L155.879977,15.0262759 L155.879977,34.6096487 C155.879977,35.6642363 155.682163,36.718824 155.352472,37.5774074 C154.299588,40.1488969 151.600377,42.8524761 147.716406,42.8524761 C142.44986,42.8524761 140.607845,38.7640848 140.607845,32.6986081 L140.607845,15.0284064 L134.81592,15.0284064 L134.81592,33.6871508 C134.81592,44.8956065 140.805659,47.6652306 145.808453,47.6652306 C151.470628,47.6652306 154.827094,44.303333 156.341545,41.7318436 L156.473421,41.7318436 L156.803112,46.9408673 L161.937781,46.9408673 C161.739967,44.4354228 161.674029,41.5337089 161.674029,38.2378563 L161.674029,15.0262759 L161.671902,15.0262759 Z M171.279732,46.9387369 L177.071657,46.9387369 L177.071657,0.125698324 L171.279732,0.125698324 L171.279732,46.9387369 Z" id="Shape" fill="#101928" fill-rule="nonzero"></path>
            <path d="M192.726656,35.9135025 C189.376571,35.9135025 186.983654,38.4061642 186.983654,41.9534135 C186.983654,45.4047912 189.280855,47.9933245 192.630939,47.9933245 C196.172458,47.9933245 198.373942,45.4047912 198.373942,41.9534135 C198.373942,38.4061642 196.076741,35.9135025 192.726656,35.9135025 Z" id="Path" fill="#ABDFF5"></path>
        </g>
    </g>
</svg>