<svg id="Slack_white" xmlns="http://www.w3.org/2000/svg" width="30.271" height="30.271" viewBox="0 0 30.271 30.271">
  <g id="Group_69" data-name="Group 69" transform="translate(0 15.949)">
    <path id="Path_168" data-name="Path 168" d="M79.96,141.48a3.18,3.18,0,1,1-3.18-3.18h3.18Z" transform="translate(-73.6 -138.3)" fill="#fff"/>
    <path id="Path_169" data-name="Path 169" d="M105.9,141.48a3.18,3.18,0,1,1,6.36,0v7.962a3.18,3.18,0,1,1-6.36,0Z" transform="translate(-97.938 -138.3)" fill="#fff"/>
  </g>
  <g id="Group_70" data-name="Group 70" transform="translate(0 0)">
    <path id="Path_170" data-name="Path 170" d="M109.08,79.96a3.18,3.18,0,1,1,3.18-3.18v3.18Z" transform="translate(-97.938 -73.6)" fill="#fff"/>
    <path id="Path_171" data-name="Path 171" d="M84.742,105.9a3.18,3.18,0,1,1,0,6.36H76.78a3.18,3.18,0,1,1,0-6.36Z" transform="translate(-73.6 -97.938)" fill="#fff"/>
  </g>
  <g id="Group_71" data-name="Group 71" transform="translate(15.949 0)">
    <path id="Path_172" data-name="Path 172" d="M170.6,109.08a3.18,3.18,0,1,1,3.18,3.18H170.6Z" transform="translate(-162.638 -97.938)" fill="#fff"/>
    <path id="Path_173" data-name="Path 173" d="M144.66,84.742a3.18,3.18,0,1,1-6.36,0V76.78a3.18,3.18,0,1,1,6.36,0Z" transform="translate(-138.3 -73.6)" fill="#fff"/>
  </g>
  <g id="Group_72" data-name="Group 72" transform="translate(15.949 15.949)">
    <path id="Path_174" data-name="Path 174" d="M141.48,170.6a3.18,3.18,0,1,1-3.18,3.18V170.6Z" transform="translate(-138.3 -162.638)" fill="#fff"/>
    <path id="Path_175" data-name="Path 175" d="M141.48,144.66a3.18,3.18,0,1,1,0-6.36h7.962a3.18,3.18,0,1,1,0,6.36Z" transform="translate(-138.3 -138.3)" fill="#fff"/>
  </g>
</svg>
