<svg xmlns="http://www.w3.org/2000/svg" width="318.434" height="557.762" viewBox="0 0 318.434 557.762"><defs><style>.a{fill:#fff;}.b{fill:#002b7f;}.c{opacity:0.1;}</style></defs><g transform="translate(-324.912 -305.646)"><g transform="translate(324.912 450.204)"><path class="a" d="M392.805,760.371c-73.624,0-133.517-59.9-133.517-133.521a133.288,133.288,0,0,1,60.036-111.5c13.707-9.052,21.889-24.695,21.889-41.845V352.389a5.222,5.222,0,0,1,10.445,0v121.12c0,20.67-9.936,39.571-26.575,50.562a123.071,123.071,0,1,0,135.449,0c-16.642-10.991-26.581-29.893-26.581-50.562V352.389a5.222,5.222,0,0,1,10.444,0v121.12c0,17.15,8.185,32.793,21.889,41.845a133.283,133.283,0,0,1,60.039,111.5C526.323,700.471,466.426,760.371,392.805,760.371Z" transform="translate(-259.288 -347.167)"/></g><g transform="translate(359.448 676.411)"><path class="a" d="M368.188,566.891a99.091,99.091,0,0,1-98.98-98.977,96.239,96.239,0,0,1,16.029-53.407,5.227,5.227,0,0,1,4.373-2.367h0l157.55,0a5.226,5.226,0,0,1,4.4,2.4,98.993,98.993,0,0,1-83.369,152.345Zm-75.7-144.306a85.7,85.7,0,0,0-12.836,45.33,88.534,88.534,0,1,0,164.6-45.326Z" transform="translate(-269.208 -412.14)"/></g><g transform="translate(460.17 734.632)"><path class="a" d="M303.36,499.768a5.222,5.222,0,1,1,0-10.445,55.3,55.3,0,0,0,55.235-55.238,5.222,5.222,0,1,1,10.444,0A65.755,65.755,0,0,1,303.36,499.768Z" transform="translate(-298.138 -428.863)"/></g><g transform="translate(408.796 644.659)"><g transform="translate(1.741 1.741)"><path class="b" d="M376.185,439.512a3.478,3.478,0,0,1-3.481-3.482V410.483H290.845v25.547a3.481,3.481,0,1,1-6.963,0V407a3.481,3.481,0,0,1,3.481-3.482h88.821A3.481,3.481,0,0,1,379.666,407v29.029A3.481,3.481,0,0,1,376.185,439.512Z" transform="translate(-283.882 -403.52)"/></g><path class="a" d="M377.426,442.494a5.22,5.22,0,0,1-5.222-5.222V413.465H293.827v23.807a5.222,5.222,0,0,1-10.445,0V408.242a5.22,5.22,0,0,1,5.222-5.222h88.821a5.222,5.222,0,0,1,5.222,5.222v29.029A5.222,5.222,0,0,1,377.426,442.494Z" transform="translate(-283.382 -403.02)"/></g><g transform="translate(427.655 487.23)"><path class="a" d="M294.021,525.39a5.224,5.224,0,0,1-5.222-5.222V363.024a5.222,5.222,0,1,1,10.445,0V520.167A5.222,5.222,0,0,1,294.021,525.39Z" transform="translate(-288.799 -357.802)"/></g><g transform="translate(385.877 584.714)"><path class="a" d="M282.021,425.854a5.222,5.222,0,0,1-5.222-5.222V391.024a5.222,5.222,0,0,1,10.445,0v29.607A5.22,5.22,0,0,1,282.021,425.854Z" transform="translate(-276.799 -385.802)"/></g><g transform="translate(521.657 584.714)"><path class="a" d="M321.021,425.854a5.222,5.222,0,0,1-5.222-5.222V391.024a5.222,5.222,0,0,1,10.445,0v29.607A5.222,5.222,0,0,1,321.021,425.854Z" transform="translate(-315.799 -385.802)"/></g><g transform="translate(446.243 501.157)"><path class="a" d="M299.36,378.635a5.222,5.222,0,0,1-5.222-5.222v-6.389a5.222,5.222,0,0,1,10.445,0v6.389A5.224,5.224,0,0,1,299.36,378.635Z" transform="translate(-294.138 -361.802)"/></g><g transform="translate(460.17 501.157)"><path class="a" d="M303.36,378.635a5.222,5.222,0,0,1-5.222-5.222v-6.389a5.222,5.222,0,0,1,10.445,0v6.389A5.224,5.224,0,0,1,303.36,378.635Z" transform="translate(-298.138 -361.802)"/></g><g transform="translate(446.243 448.933)"><path class="a" d="M299.36,360.154a5.222,5.222,0,0,1-5.222-5.222v-2.907a5.222,5.222,0,1,1,10.445,0v2.907A5.224,5.224,0,0,1,299.36,360.154Z" transform="translate(-294.138 -346.802)"/></g><g transform="translate(460.17 448.933)"><path class="a" d="M303.36,360.154a5.222,5.222,0,0,1-5.222-5.222v-2.907a5.222,5.222,0,1,1,10.445,0v2.907A5.224,5.224,0,0,1,303.36,360.154Z" transform="translate(-298.138 -346.802)"/></g><g transform="translate(446.243 525.527)"><path class="a" d="M299.36,385.635a5.222,5.222,0,0,1-5.222-5.222v-6.389a5.222,5.222,0,1,1,10.445,0v6.389A5.224,5.224,0,0,1,299.36,385.635Z" transform="translate(-294.138 -368.802)"/></g><g transform="translate(460.17 525.527)"><path class="a" d="M303.36,385.635a5.222,5.222,0,0,1-5.222-5.222v-6.389a5.222,5.222,0,1,1,10.445,0v6.389A5.224,5.224,0,0,1,303.36,385.635Z" transform="translate(-298.138 -368.802)"/></g><g transform="translate(446.243 549.898)"><path class="a" d="M299.36,392.635a5.222,5.222,0,0,1-5.222-5.222v-6.389a5.222,5.222,0,1,1,10.445,0v6.389A5.224,5.224,0,0,1,299.36,392.635Z" transform="translate(-294.138 -375.802)"/></g><g transform="translate(460.17 549.898)"><path class="a" d="M303.36,392.635a5.222,5.222,0,0,1-5.222-5.222v-6.389a5.222,5.222,0,1,1,10.445,0v6.389A5.224,5.224,0,0,1,303.36,392.635Z" transform="translate(-298.138 -375.802)"/></g><g transform="translate(446.243 574.269)"><path class="a" d="M299.36,399.635a5.222,5.222,0,0,1-5.222-5.222v-6.389a5.222,5.222,0,0,1,10.445,0v6.389A5.224,5.224,0,0,1,299.36,399.635Z" transform="translate(-294.138 -382.802)"/></g><g transform="translate(460.17 574.269)"><path class="a" d="M303.36,399.635a5.222,5.222,0,0,1-5.222-5.222v-6.389a5.222,5.222,0,0,1,10.445,0v6.389A5.224,5.224,0,0,1,303.36,399.635Z" transform="translate(-298.138 -382.802)"/></g><g transform="translate(446.243 598.64)"><path class="a" d="M299.36,406.635a5.222,5.222,0,0,1-5.222-5.222v-6.388a5.222,5.222,0,1,1,10.445,0v6.388A5.224,5.224,0,0,1,299.36,406.635Z" transform="translate(-294.138 -389.802)"/></g><g transform="translate(460.17 598.64)"><path class="a" d="M303.36,406.635a5.222,5.222,0,0,1-5.222-5.222v-6.388a5.222,5.222,0,1,1,10.445,0v6.388A5.224,5.224,0,0,1,303.36,406.635Z" transform="translate(-298.138 -389.802)"/></g><g transform="translate(446.243 623.011)"><path class="a" d="M299.36,413.635a5.222,5.222,0,0,1-5.222-5.223v-6.388a5.222,5.222,0,1,1,10.445,0v6.388A5.224,5.224,0,0,1,299.36,413.635Z" transform="translate(-294.138 -396.802)"/></g><g transform="translate(460.17 623.011)"><path class="a" d="M303.36,413.635a5.222,5.222,0,0,1-5.222-5.223v-6.388a5.222,5.222,0,1,1,10.445,0v6.388A5.225,5.225,0,0,1,303.36,413.635Z" transform="translate(-298.138 -396.802)"/></g><g transform="translate(478.18 487.23)"><path class="a" d="M308.533,525.39a5.222,5.222,0,0,1-5.222-5.222V363.024a5.222,5.222,0,1,1,10.445,0V520.167A5.224,5.224,0,0,1,308.533,525.39Z" transform="translate(-303.311 -357.802)"/></g><g transform="translate(408.751 467.466)"><g transform="translate(1.741 1.741)"><path class="b" d="M376.172,378.956H287.351a3.483,3.483,0,0,1-3.482-3.481V356.107a3.483,3.483,0,0,1,3.482-3.481h88.821a3.481,3.481,0,0,1,3.481,3.481v19.368A3.48,3.48,0,0,1,376.172,378.956Zm-85.34-6.963h81.858v-12.4H290.832Z" transform="translate(-283.869 -352.625)"/></g><path class="a" d="M377.413,381.938H288.591a5.224,5.224,0,0,1-5.222-5.223V357.347a5.222,5.222,0,0,1,5.222-5.222h88.821a5.222,5.222,0,0,1,5.222,5.222v19.368A5.224,5.224,0,0,1,377.413,381.938Zm-83.6-10.445h78.377V362.57H293.814Z" transform="translate(-283.369 -352.125)"/></g><g transform="translate(423.599 413.617)"><g transform="translate(1.741 1.741)"><path class="b" d="M350.83,396.947a3.481,3.481,0,0,1-3.481-3.482V344.121H295.1v49.344a3.482,3.482,0,1,1-6.963,0V340.64a3.481,3.481,0,0,1,3.482-3.482H350.83a3.481,3.481,0,0,1,3.481,3.482v52.825A3.483,3.483,0,0,1,350.83,396.947Z" transform="translate(-288.134 -337.158)"/></g><g transform="translate(1.741 1.741)"><path class="b" d="M350.83,396.947a3.481,3.481,0,0,1-3.481-3.482V344.121H295.1v49.344a3.482,3.482,0,1,1-6.963,0V340.64a3.481,3.481,0,0,1,3.482-3.482H350.83a3.481,3.481,0,0,1,3.481,3.482v52.825A3.483,3.483,0,0,1,350.83,396.947Z" transform="translate(-288.134 -337.158)"/></g><path class="a" d="M352.07,399.928a5.222,5.222,0,0,1-5.222-5.222V347.1h-48.77v47.6a5.222,5.222,0,0,1-10.445,0V341.88a5.22,5.22,0,0,1,5.222-5.222H352.07a5.222,5.222,0,0,1,5.222,5.222v52.826A5.224,5.224,0,0,1,352.07,399.928Z" transform="translate(-287.634 -336.658)"/></g><g transform="translate(433.466 371.26)"><g transform="translate(1.741 1.741)"><path class="b" d="M333.927,371.432a3.48,3.48,0,0,1-3.481-3.482v-36H297.931v36a3.482,3.482,0,1,1-6.963,0V328.473a3.483,3.483,0,0,1,3.482-3.481h39.477a3.483,3.483,0,0,1,3.482,3.481v39.477A3.483,3.483,0,0,1,333.927,371.432Z" transform="translate(-290.968 -324.992)"/></g><g transform="translate(1.741 1.741)"><path class="b" d="M333.927,371.432a3.48,3.48,0,0,1-3.481-3.482v-36H297.931v36a3.482,3.482,0,1,1-6.963,0V328.473a3.483,3.483,0,0,1,3.482-3.481h39.477a3.483,3.483,0,0,1,3.482,3.481v39.477A3.483,3.483,0,0,1,333.927,371.432Z" transform="translate(-290.968 -324.992)"/></g><path class="a" d="M335.168,374.414a5.224,5.224,0,0,1-5.222-5.222V334.937H300.913v34.255a5.222,5.222,0,0,1-10.445,0V329.714a5.224,5.224,0,0,1,5.223-5.222h39.477a5.224,5.224,0,0,1,5.222,5.222v39.477A5.224,5.224,0,0,1,335.168,374.414Z" transform="translate(-290.468 -324.492)"/></g><g transform="translate(423.599 433.74)"><path class="a" d="M352.07,352.883H292.856a5.222,5.222,0,1,1,0-10.445H352.07a5.222,5.222,0,1,1,0,10.445Z" transform="translate(-287.634 -342.438)"/></g><g transform="translate(448.273 388.689)"><path class="a" d="M304.877,349.813a10.157,10.157,0,1,1,10.156-10.156A10.167,10.167,0,0,1,304.877,349.813Zm0-10.445a.288.288,0,0,0-.289.289c0,.313.578.313.578,0A.288.288,0,0,0,304.877,339.368Z" transform="translate(-294.721 -329.498)"/></g><g transform="translate(452.616 305.646)"><path class="a" d="M295.968,376.483l5.812-70.837,5.812,70.837Z" transform="translate(-295.968 -305.646)"/></g><g transform="translate(436.084 660.911)"><path class="a" d="M296.157,407.688a4.933,4.933,0,1,0,4.933,4.933A4.935,4.935,0,0,0,296.157,407.688Z" transform="translate(-291.22 -407.688)"/><g transform="translate(17.408)"><path class="a" d="M301.157,407.688a4.933,4.933,0,1,0,4.933,4.933A4.935,4.935,0,0,0,301.157,407.688Z" transform="translate(-296.22 -407.688)"/></g><g transform="translate(34.815)"><path class="a" d="M306.157,407.688a4.933,4.933,0,1,0,4.933,4.933A4.935,4.935,0,0,0,306.157,407.688Z" transform="translate(-301.22 -407.688)"/></g></g><g class="c" transform="translate(531.294 517.499)"><rect class="a" width="69.083" height="19.738" rx="2.835"/></g><g class="c" transform="translate(516.792 364.311)"><rect class="a" width="49.345" height="19.738" rx="2.835"/></g><g class="c" transform="translate(542.313 425.799)"><path class="a" d="M404.742,379.634H394.27a9.868,9.868,0,1,1,0-19.737h6.413a9.87,9.87,0,0,0,0-19.74H331.6a9.87,9.87,0,0,0,0,19.74h27.3a9.868,9.868,0,1,1,0,19.737H355.4a9.868,9.868,0,1,0,0,19.737h49.344a9.868,9.868,0,0,0,0-19.737Z" transform="translate(-321.732 -340.157)"/></g><g class="c" transform="translate(623.607 392.177)"><circle class="a" cx="9.869" cy="9.869" r="9.869"/></g><g class="c" transform="translate(623.607 552.328)"><circle class="a" cx="9.869" cy="9.869" r="9.869"/></g></g></svg>