<svg xmlns="http://www.w3.org/2000/svg" width="318.899" height="56.651" viewBox="0 0 318.899 56.651">
  <g id="Group_64" data-name="Group 64" transform="translate(-204.967 -483.678)">
    <path id="Path_140" data-name="Path 140" d="M259.387,484l-10.454,30.1H236.826l-4.568-13.923L227.528,514.1H215.421L204.967,484h11.775l5.173,15.9,5.393-15.9h10.566l5.226,16.069L248.493,484Z" transform="translate(0 0.23)" fill="#132233"/>
    <path id="Path_141" data-name="Path 141" d="M267.773,498.149v16.177H256.218v-3.962c-1.431,3.027-4.292,4.513-8.53,4.513-7.372,0-11.17-4.182-11.17-9.354,0-5.835,4.4-9.08,13.756-9.08h5.008c-.385-2.311-2.146-3.522-5.668-3.522a13.566,13.566,0,0,0-7.7,2.366l-3.961-8.2c3.52-2.2,8.858-3.41,13.536-3.41C261.831,483.678,267.773,488.135,267.773,498.149Zm-12.435,6.384v-2.091h-3.082c-2.641,0-3.8.881-3.8,2.531,0,1.374,1.1,2.421,2.972,2.421A3.938,3.938,0,0,0,255.338,504.533Z" transform="translate(22.708 0)" fill="#132233"/>
    <path id="Path_142" data-name="Path 142" d="M279.4,483.678v11a17.063,17.063,0,0,0-2.753-.22c-3.74,0-6.382,1.7-6.382,6.494v13.371H257.831v-30.1h11.83v3.247C271.862,484.942,275.217,483.678,279.4,483.678Z" transform="translate(38.047 0)" fill="#132233"/>
    <path id="Path_143" data-name="Path 143" d="M271.334,511.905l3.412-8.2a21.783,21.783,0,0,0,10.511,2.7c3.025,0,3.85-.552,3.85-1.431,0-3.082-17.333,1.044-17.333-11.006,0-5.668,5.283-10.289,15.409-10.289,4.4,0,9.078.824,12.27,2.475l-3.412,8.2a17.83,17.83,0,0,0-8.693-2.2c-3.192,0-4.072.717-4.072,1.432,0,3.137,17.278-.936,17.278,11.115,0,5.448-5.118,10.181-15.572,10.181C279.809,514.877,274.416,513.666,271.334,511.905Z" transform="translate(47.765 0)" fill="#132233"/>
    <path id="Path_144" data-name="Path 144" d="M320.892,498.149v16.177H309.337v-3.962c-1.431,3.027-4.292,4.513-8.53,4.513-7.372,0-11.17-4.182-11.17-9.354,0-5.835,4.4-9.08,13.756-9.08H308.4c-.385-2.311-2.146-3.522-5.668-3.522a13.57,13.57,0,0,0-7.7,2.366l-3.961-8.2c3.522-2.2,8.86-3.41,13.536-3.41C314.949,483.678,320.892,488.135,320.892,498.149Zm-12.435,6.384v-2.091h-3.082c-2.642,0-3.8.881-3.8,2.531,0,1.374,1.1,2.421,2.972,2.421A3.938,3.938,0,0,0,308.457,504.533Z" transform="translate(60.939 0)" fill="#132233"/>
    <path id="Path_145" data-name="Path 145" d="M363.258,484,352.8,514.1H340.7l-4.568-13.923L331.4,514.1H319.292L308.838,484h11.777l5.169,15.9,5.395-15.9h10.566l5.226,16.069L352.362,484Z" transform="translate(74.757 0.23)" fill="#132233"/>
    <g id="Group_62" data-name="Group 62" transform="translate(437.14 483.678)">
      <path id="Path_146" data-name="Path 146" d="M347.236,493.564c-4.127,0-7.262,2.807-7.262,7.044a7.264,7.264,0,0,0,14.526,0C354.5,496.371,351.364,493.564,347.236,493.564Z" transform="translate(-339.974 -476.563)" fill="#132233"/>
      <path id="Path_147" data-name="Path 147" d="M383.355,499.248c0-10.179-7.649-15.57-16.564-15.57-9.739,0-17.058,6.437-17.058,15.57,0,8.97,7.156,15.629,18.215,15.629,6,0,10.234-1.651,13.151-4.843l-6.494-6.549a9.184,9.184,0,0,1-6.272,2.2c-3.082,0-5.173-1.212-6.053-3.522h20.91C383.245,501.286,383.355,500.129,383.355,499.248Zm-21.3-3.082a4.926,4.926,0,0,1,9.684,0Z" transform="translate(-332.95 -483.678)" fill="#132233"/>
      <path id="Path_148" data-name="Path 148" d="M394.337,498.635,405.4,484H392.355l-4.511,6.383L383.552,484H369.52l11.061,15.189L369.189,514.1h13.482l4.622-6.439,4.126,6.439h14.253Z" transform="translate(-318.947 -483.448)" fill="#132233"/>
    </g>
    <g id="Group_63" data-name="Group 63" transform="translate(214.474 525.458)">
      <path id="Path_149" data-name="Path 149" d="M224.168,522.551l-2-8.642-2.064,8.642h-4.929l-4.681-14.458h5.114l2.186,9.486,2.146-9.467,4.66-.019,2.187,9.486,2.144-9.486h4.887L229.1,522.551Z" transform="translate(-210.495 -507.887)" fill="#18263a"/>
      <path id="Path_150" data-name="Path 150" d="M229.539,520.509l-.743,2.041h-4.91l6.107-14.458H234.9l5.878,14.458h-5.094l-.722-2.041Zm2.764-7.653-1.527,4.227h3.011Z" transform="translate(-200.857 -507.887)" fill="#18263a"/>
      <path id="Path_151" data-name="Path 151" d="M241.494,518.8H239.7v3.754h-4.786V508.093h6.992c3.919,0,6.167,1.876,6.167,5.176a5.027,5.027,0,0,1-2.289,4.58l2.846,4.7h-5.4Zm.413-3.63a1.543,1.543,0,0,0,1.629-1.752,1.515,1.515,0,0,0-1.629-1.692H239.7v3.445Z" transform="translate(-192.92 -507.887)" fill="#18263a"/>
      <path id="Path_152" data-name="Path 152" d="M257.258,509.684l-1.733,3.63a13.275,13.275,0,0,0-4.97-1.69c-.537,0-.886.163-.886.6,0,1.816,7.486.681,7.486,5.921,0,3.218-2.825,4.64-6.084,4.64a12.5,12.5,0,0,1-7.24-2.311l1.775-3.587a10.54,10.54,0,0,0,5.507,2.248c.7,0,1.156-.227,1.156-.743,0-1.876-7.488-.64-7.488-5.713,0-2.887,2.433-4.7,6.188-4.7A12.318,12.318,0,0,1,257.258,509.684Z" transform="translate(-186.503 -507.973)" fill="#18263a"/>
      <path id="Path_153" data-name="Path 153" d="M257.955,520.509l-.743,2.041H252.3l6.107-14.458h4.908l5.878,14.458H264.1l-.722-2.041Zm2.764-7.653-1.527,4.227H262.2Z" transform="translate(-180.406 -507.887)" fill="#18263a"/>
      <path id="Path_154" data-name="Path 154" d="M275.625,522.551l-2-8.642-2.064,8.642h-4.929l-4.683-14.458h5.116l2.186,9.486,2.144-9.467,4.662-.019,2.186,9.486,2.145-9.486h4.889l-4.722,14.458Z" transform="translate(-173.462 -507.887)" fill="#18263a"/>
      <path id="Path_155" data-name="Path 155" d="M284.794,511.722V513.5h6.765v3.63h-6.765v1.794h7.632v3.63H280.01V508.093h12.231v3.629Z" transform="translate(-160.464 -507.887)" fill="#18263a"/>
      <path id="Path_156" data-name="Path 156" d="M299.817,518.571v3.979H289.009V508.093h4.786v10.478Z" transform="translate(-153.987 -507.887)" fill="#18263a"/>
      <path id="Path_157" data-name="Path 157" d="M296.737,522.551V508.093h4.788v14.458Z" transform="translate(-148.425 -507.887)" fill="#18263a"/>
      <path id="Path_158" data-name="Path 158" d="M316.932,522.551H311.2l-2.433-3.733-2.394,3.733h-5.589l5.073-7.343-4.764-7.114h5.568l2.1,3.4,2.1-3.4H316.5l-4.683,6.889Z" transform="translate(-145.514 -507.887)" fill="#18263a"/>
      <path id="Path_159" data-name="Path 159" d="M311.437,522.551V508.093h4.788v14.458Z" transform="translate(-137.846 -507.887)" fill="#18263a"/>
      <path id="Path_160" data-name="Path 160" d="M322.722,518.8h-1.8v3.754h-4.784V508.093h6.991c3.919,0,6.167,1.876,6.167,5.176a5.028,5.028,0,0,1-2.289,4.58l2.846,4.7h-5.4Zm.411-3.63a1.543,1.543,0,0,0,1.629-1.752,1.515,1.515,0,0,0-1.629-1.692h-2.206v3.445Z" transform="translate(-134.459 -507.887)" fill="#18263a"/>
      <path id="Path_161" data-name="Path 161" d="M341.04,522.551v-7.919l-2.473,6.518h-3.137l-2.475-6.518v7.919h-4.167V508.093h5.054L337,515.641l3.156-7.548h5.054v14.458Z" transform="translate(-125.357 -507.887)" fill="#18263a"/>
      <path id="Path_162" data-name="Path 162" d="M345.047,511.722V513.5h6.765v3.63h-6.765v1.794h7.629v3.63H340.261V508.093h12.231v3.629Z" transform="translate(-117.101 -507.887)" fill="#18263a"/>
      <path id="Path_163" data-name="Path 163" d="M354.045,511.722V513.5h6.767v3.63h-6.767v1.794h7.63v3.63H349.261V508.093h12.231v3.629Z" transform="translate(-110.623 -507.887)" fill="#18263a"/>
      <path id="Path_164" data-name="Path 164" d="M366.612,511.866v10.685h-4.788V511.866h-4.1v-3.773h13.015v3.773Z" transform="translate(-104.534 -507.887)" fill="#18263a"/>
      <path id="Path_165" data-name="Path 165" d="M380.435,516.425c0,3.837-2.7,6.332-6.889,6.332-4.208,0-6.992-2.5-6.992-6.332v-8.332h4.784v8.332a2.239,2.239,0,0,0,2.229,2.353,2.13,2.13,0,0,0,2.083-2.353v-8.332h4.786Z" transform="translate(-98.178 -507.887)" fill="#18263a"/>
      <path id="Path_166" data-name="Path 166" d="M383.215,508.093c3.754,0,5.917,1.876,5.917,5.176,0,3.507-2.163,5.527-5.917,5.527h-2v3.754h-4.784V508.093Zm-2,7.073h1.752a1.544,1.544,0,0,0,1.63-1.752,1.516,1.516,0,0,0-1.63-1.692h-1.752Z" transform="translate(-91.07 -507.887)" fill="#18263a"/>
    </g>
  </g>
</svg>
