<svg id="youtube_white" xmlns="http://www.w3.org/2000/svg" width="36.06" height="26.07" viewBox="0 0 36.06 26.07">
  <g id="Group_74" data-name="Group 74" transform="translate(0 0)">
    <path id="Path_183" data-name="Path 183" d="M34.528,82.512c-.978-1.83-2.04-2.166-4.2-2.294C28.168,80.064,22.738,80,18.035,80s-10.144.064-12.3.216c-2.157.13-3.221.465-4.208,2.3C.518,84.34,0,87.487,0,93.028v.019c0,5.517.518,8.689,1.526,10.5.987,1.83,2.049,2.161,4.206,2.316,2.159.133,7.591.211,12.3.211s10.133-.078,12.294-.209c2.161-.154,3.223-.486,4.2-2.316,1.016-1.808,1.53-4.979,1.53-10.5V93.03C36.06,87.487,35.546,84.34,34.528,82.512ZM13.523,100.145V85.925l11.269,7.11Z" transform="translate(0 -80)" fill="#fff"/>
  </g>
</svg>
